<svg width="35" height="35" viewBox="0 0 35 35" fill="none" xmlns="http://www.w3.org/2000/svg">
<path d="M21.8447 4.64478L23.403 12.6952C23.4757 13.059 23.7286 13.385 24.0583 13.5308L31.5296 16.7666C32.3934 17.1415 32.4433 18.3314 31.636 18.8037L24.5147 22.8354C24.1855 23.0055 23.9792 23.3519 23.9317 23.7409L23.1529 31.9399C23.0678 32.8927 21.9358 33.3068 21.2568 32.6657L15.2873 27.1063C15.0128 26.8606 14.6423 26.7613 14.2817 26.8368L6.33231 28.6667C5.42368 28.8824 4.65755 27.931 5.05306 27.09L8.47805 19.6001C8.62424 19.2663 8.61883 18.8631 8.42595 18.5245L4.27454 11.4722C3.81163 10.6595 4.44976 9.65403 5.38533 9.76124L13.4736 10.6946C13.8319 10.7332 14.2068 10.6041 14.4589 10.2986L19.8336 4.1059C20.4529 3.3823 21.6172 3.69429 21.7918 4.6306L21.8447 4.64478Z" stroke="white" stroke-linejoin="round"/>
</svg>
