<svg width="96" height="83" viewBox="0 0 96 83" fill="none" xmlns="http://www.w3.org/2000/svg">
<path d="M69.581 48.5812C69.581 40.8167 26.4258 40.8167 26.4258 48.5812V76.8065C26.4258 83.7317 69.581 83.7317 69.581 76.8065V48.5812Z" stroke="#CEE2FF" stroke-miterlimit="10"/>
<path d="M69.581 49.3506C69.581 57.1152 26.4258 57.1152 26.4258 49.3506" stroke="#CEE2FF" stroke-miterlimit="10"/>
<path d="M48.0195 49.3505V0" stroke="#CEE2FF" stroke-miterlimit="10"/>
<path d="M95.5017 47.9866C95.5017 53.7926 88.4581 58.5143 79.7341 58.5143C71.0101 58.5143 47.9844 47.9866 47.9844 47.9866C47.9844 47.9866 71.0458 37.459 79.7341 37.459C88.4223 37.459 95.5017 42.1807 95.5017 47.9866Z" stroke="#CEE2FF" stroke-miterlimit="10"/>
<path d="M0.5 47.9866C0.5 42.1807 7.54357 37.459 16.2676 37.459C24.9916 37.459 48.0173 47.9866 48.0173 47.9866C48.0173 47.9866 24.9558 58.5143 16.2676 58.5143C7.57932 58.5143 0.5 53.7926 0.5 47.9866Z" stroke="#CEE2FF" stroke-miterlimit="10"/>
</svg>
