<svg width="177" height="33" viewBox="0 0 177 33" fill="none" xmlns="http://www.w3.org/2000/svg">
<path d="M150.123 11.418C148.929 11.418 147.879 11.63 146.976 12.0556C146.074 12.4797 145.378 13.0873 144.889 13.8737C144.402 14.6601 144.156 15.5762 144.156 16.6237V16.793C144.156 17.8404 144.401 18.7566 144.889 19.543C145.376 20.3199 146.068 20.9196 146.961 21.3452C147.863 21.7692 148.918 21.9828 150.123 21.9828C151.329 21.9828 152.377 21.7708 153.27 21.3452C154.163 20.9211 154.855 20.3199 155.342 19.543C155.829 18.7566 156.075 17.8404 156.075 16.793V16.6237C156.075 15.5762 155.83 14.6601 155.342 13.8737C154.855 13.0873 154.157 12.4813 153.255 12.0556C152.362 11.6316 151.318 11.418 150.123 11.418ZM150.123 20.179C148.856 20.179 147.876 19.8879 147.181 19.3072C146.486 18.717 146.137 17.8895 146.137 16.8214V16.6047C146.137 15.5382 146.486 14.7075 147.181 14.1189C147.876 13.5177 148.858 13.2186 150.123 13.2186C151.389 13.2186 152.365 13.5192 153.05 14.1189C153.745 14.7091 154.094 15.5366 154.094 16.6047V16.8214C154.094 17.8879 153.745 18.7186 153.05 19.3072C152.365 19.8879 151.388 20.179 150.123 20.179Z" fill="#777679"/>
<path d="M142.426 11.6045H139.685L135.745 19.6045L131.788 11.6045H129.047V21.7959H130.98V14.1361L134.733 21.7959H136.741L140.496 14.1678V21.7959H142.426V11.6045Z" fill="#777679"/>
<path d="M108.221 11.418C107.027 11.418 105.977 11.63 105.074 12.0556C104.172 12.4797 103.475 13.0873 102.987 13.8737C102.5 14.6601 102.254 15.5762 102.254 16.6237V16.793C102.254 17.8404 102.498 18.7566 102.987 19.543C103.474 20.3199 104.165 20.9196 105.058 21.3452C105.961 21.7692 107.016 21.9828 108.221 21.9828C109.427 21.9828 110.475 21.7708 111.368 21.3452C112.261 20.9211 112.953 20.3199 113.44 19.543C113.927 18.7566 114.172 17.8404 114.172 16.793V16.6237C114.172 15.5762 113.928 14.6601 113.44 13.8737C112.953 13.0873 112.255 12.4813 111.352 12.0556C110.459 11.6316 109.415 11.418 108.221 11.418ZM108.221 20.179C106.954 20.179 105.973 19.8879 105.279 19.3072C104.584 18.717 104.235 17.8895 104.235 16.8214V16.6047C104.235 15.5382 104.584 14.7075 105.279 14.1189C105.973 13.5177 106.955 13.2186 108.221 13.2186C109.487 13.2186 110.462 13.5192 111.148 14.1189C111.842 14.7091 112.191 15.5366 112.191 16.6047V16.8214C112.191 17.8879 111.842 18.7186 111.148 19.3072C110.462 19.8879 109.485 20.179 108.221 20.179Z" fill="#777679"/>
<path d="M101.869 11.6045H99.5185L95.4833 15.7516H93.4736V11.6045H91.5273V21.7959H93.4736V17.4921H95.4991L99.4091 21.7959H101.682V21.5016L97.2899 16.576L101.869 11.8988V11.6045Z" fill="#777679"/>
<path d="M70.7016 11.418C69.5072 11.418 68.4571 11.63 67.5546 12.0556C66.6521 12.4797 65.9557 13.0873 65.4672 13.8737C64.9802 14.6601 64.7344 15.5762 64.7344 16.6237V16.793C64.7344 17.8404 64.9786 18.7566 65.4672 19.543C65.9541 20.3199 66.6457 20.9196 67.5387 21.3452C68.4413 21.7692 69.4961 21.9828 70.7016 21.9828C71.9071 21.9828 72.9555 21.7708 73.8485 21.3452C74.7416 20.9211 75.4331 20.3199 75.9201 19.543C76.407 18.7566 76.6529 17.8404 76.6529 16.793V16.6237C76.6529 15.5762 76.4086 14.6601 75.9201 13.8737C75.4331 13.0873 74.7352 12.4813 73.8327 12.0556C72.9397 11.6316 71.896 11.418 70.7016 11.418ZM70.7016 20.179C69.4342 20.179 68.454 19.8879 67.7592 19.3072C67.0645 18.717 66.7155 17.8895 66.7155 16.8214V16.6047C66.7155 15.5382 67.0645 14.7075 67.7592 14.1189C68.454 13.5177 69.4358 13.2186 70.7016 13.2186C71.9673 13.2186 72.9428 13.5192 73.6281 14.1189C74.3228 14.7091 74.6718 15.5366 74.6718 16.6047V16.8214C74.6718 17.8879 74.3228 18.7186 73.6281 19.3072C72.9428 19.8879 71.9657 20.179 70.7016 20.179Z" fill="#777679"/>
<path d="M59.7805 11.6045H53.3945V21.7959H55.3408V18.0823H59.7789C60.9511 18.0823 61.8758 17.8039 62.5515 17.2422C63.2367 16.6725 63.5794 15.9004 63.5794 14.9273V14.758C63.5794 13.7833 63.2367 13.0175 62.5515 12.4589C61.8758 11.8893 60.9527 11.6061 59.7789 11.6061M55.3424 16.345V13.3466H59.7345C60.3372 13.3466 60.7972 13.4716 61.1208 13.72C61.4412 13.9589 61.6046 14.3054 61.6046 14.7611V14.9304C61.6046 15.3861 61.4444 15.739 61.1208 15.9874C60.7972 16.2263 60.3372 16.345 59.7345 16.345H55.3424Z" fill="#777679"/>
<path d="M83.973 11.4173C82.7564 11.4173 81.6937 11.6309 80.78 12.055C79.8664 12.479 79.1606 13.0866 78.6625 13.873C78.174 14.6499 77.9297 15.5613 77.9297 16.6072V16.8081C77.9297 17.8556 78.174 18.7654 78.6625 19.5423C79.1622 20.3192 79.8664 20.9189 80.78 21.3445C81.6937 21.7686 82.758 21.9822 83.973 21.9822C85.0833 21.9822 86.0795 21.8002 86.963 21.4395C87.856 21.0661 88.5507 20.5581 89.0504 19.9157C89.3343 19.555 89.5357 19.1673 89.6626 18.7559L87.8195 17.979C87.7719 18.3525 87.6149 18.6926 87.3547 18.9964C87.0312 19.3699 86.5759 19.661 85.9843 19.8651C85.4022 20.0724 84.7328 20.1752 83.9762 20.1752C82.6565 20.1752 81.6509 19.8904 80.9545 19.3192C80.2598 18.7385 79.9108 17.911 79.9108 16.8335V16.5692C79.9108 15.4933 80.2598 14.6626 80.9545 14.0835C81.662 13.5028 82.6676 13.2116 83.9762 13.2116C84.7122 13.2116 85.3784 13.3208 85.97 13.5376C86.5617 13.7449 87.0201 14.0392 87.3405 14.4221C87.5149 14.6151 87.6418 14.8256 87.7243 15.0439L89.531 14.2828C89.4104 14.0059 89.2518 13.7417 89.0535 13.4885C88.5539 12.8366 87.8591 12.3287 86.9661 11.9648C86.0826 11.5914 85.0865 11.4062 83.9762 11.4062" fill="#777679"/>
<path d="M121.762 11.4173C120.549 11.4173 119.483 11.6309 118.569 12.055C117.655 12.479 116.95 13.0866 116.45 13.873C115.963 14.6499 115.719 15.5613 115.719 16.6072V16.8081C115.719 17.8556 115.963 18.7654 116.45 19.5423C116.95 20.3192 117.654 20.9189 118.569 21.3445C119.483 21.7686 120.547 21.9822 121.762 21.9822C122.872 21.9822 123.869 21.8002 124.752 21.4395C125.645 21.0661 126.34 20.5581 126.839 19.9157C127.123 19.5518 127.325 19.1673 127.452 18.7559L125.609 17.979C125.561 18.3525 125.404 18.6926 125.141 18.9964C124.817 19.3699 124.362 19.661 123.77 19.8651C123.188 20.0724 122.519 20.1752 121.762 20.1752C120.442 20.1752 119.437 19.8904 118.74 19.3192C118.046 18.7385 117.697 17.911 117.697 16.8335V16.5692C117.697 15.4933 118.046 14.6626 118.74 14.0835C119.448 13.5028 120.453 13.2116 121.762 13.2116C122.498 13.2116 123.164 13.3208 123.756 13.5376C124.348 13.7449 124.806 14.0392 125.126 14.4221C125.301 14.6151 125.428 14.8256 125.51 15.0439L127.317 14.2828C127.196 14.0059 127.038 13.7417 126.839 13.4885C126.34 12.8366 125.645 12.3287 124.752 11.9648C123.869 11.5914 122.872 11.4062 121.762 11.4062" fill="#777679"/>
<path d="M163.309 11.4173C162.096 11.4173 161.03 11.6309 160.116 12.055C159.202 12.479 158.496 13.0866 157.997 13.873C157.51 14.6499 157.266 15.5613 157.266 16.6072V16.8081C157.266 17.8556 157.51 18.7654 157.997 19.5423C158.496 20.3192 159.201 20.9189 160.116 21.3445C161.03 21.7686 162.094 21.9822 163.309 21.9822C164.419 21.9822 165.415 21.8002 166.299 21.4395C167.192 21.0661 167.887 20.5581 168.386 19.9157C168.67 19.5518 168.873 19.1673 168.999 18.7559L167.155 17.979C167.108 18.3525 166.951 18.6926 166.688 18.9964C166.364 19.3699 165.909 19.661 165.317 19.8651C164.735 20.0724 164.066 20.1752 163.309 20.1752C161.989 20.1752 160.984 19.8904 160.287 19.3192C159.593 18.7385 159.244 17.911 159.244 16.8335V16.5692C159.244 15.4933 159.593 14.6626 160.287 14.0835C160.995 13.5028 162 13.2116 163.309 13.2116C164.045 13.2116 164.711 13.3208 165.303 13.5376C165.894 13.7449 166.353 14.0392 166.673 14.4221C166.848 14.6151 166.975 14.8256 167.057 15.0439L168.864 14.2828C168.743 14.0059 168.585 13.7417 168.386 13.4885C167.887 12.8366 167.192 12.3287 166.299 11.9648C165.415 11.5914 164.419 11.4062 163.309 11.4062" fill="#777679"/>
<path d="M41.0797 8.43359C44.2171 8.78644 46.1158 9.8972 45.9984 11.663C45.8652 13.6551 43.2036 16.0364 39.1795 18.1171L38.7972 20.1931C44.0157 17.4811 47.1912 14.2485 47.2515 11.8054C47.2991 9.8434 44.9166 8.68992 41.0813 8.43359M27.9493 9.96682L27.7875 10.0064C16.9492 12.7516 8.08883 18.0064 8 21.7453V21.8307C8.03014 23.6361 10.4919 24.8213 14.2638 25.2342L17.1015 22.8482C14.2575 22.4368 12.5618 21.3529 12.6729 19.6788C12.8854 16.4937 19.568 12.307 27.9477 9.96524M33.1901 20.6187C31.8244 21.0776 30.3952 21.4906 28.9264 21.8434C28.4886 21.9478 28.0508 22.0966 27.6131 22.1709L21.3033 25.1725C23.7666 24.9494 26.2331 24.5586 28.9264 23.8766C30.8235 23.3972 32.6174 22.8276 34.2829 22.1978L33.1901 20.6171" fill="#777679"/>
<path d="M40.8776 4.00121H40.876C40.8332 4.00121 40.7713 4.05184 40.6539 4.15153L11.73 28.4696C11.435 28.7164 11.2891 28.8414 11.2891 28.892C11.2891 28.9348 11.316 28.9775 11.3557 28.9949C11.3589 28.9949 11.3636 28.9965 11.37 28.998H11.3795C11.4509 28.9949 11.6206 28.9126 11.9283 28.767L32.7754 18.8794C32.8262 18.8556 32.8499 18.8446 32.8769 18.8446L32.9388 18.8604C32.961 18.8715 32.9768 18.8952 33.0086 18.9411L36.9026 24.5692C36.9819 24.6832 37.0216 24.7386 37.0612 24.7512C37.0708 24.7528 37.0803 24.7544 37.0914 24.7544C37.1168 24.7544 37.1421 24.7465 37.1628 24.7291C37.1961 24.7037 37.2088 24.6341 37.2325 24.4996L40.949 4.31925C40.9759 4.16735 40.9902 4.08982 40.9664 4.05184C40.9474 4.0202 40.9109 4.00121 40.8728 3.99805" fill="#EF4042"/>
</svg>
