<svg width="213" height="40" viewBox="0 0 213 40" fill="none" xmlns="http://www.w3.org/2000/svg">
<path d="M0 14.0244V40.0003H25.9222C25.9222 25.6871 14.3318 14.0244 0 14.0244Z" fill="white"/>
<path d="M39.8692 0.0478516V39.9997H35.8294C35.8294 20.1925 19.7663 4.14424 0 4.14424V0.0478516H39.8692Z" fill="white"/>
<path d="M49.6289 4.57832H56.2177V24.482H61.1232V4.57832H67.76V0H49.6289V4.57832Z" fill="white"/>
<path d="M83.0507 6.98778C81.5117 6.02392 79.7323 5.54199 77.7124 5.54199C75.8367 5.54199 74.2016 5.97573 72.7588 6.79501C71.316 7.61428 70.1618 8.77091 69.3442 10.2167C68.5266 11.6625 68.0938 13.3492 68.0938 15.1806C68.0938 17.0119 68.5266 18.6986 69.3442 20.1444C70.1618 21.5902 71.316 22.7468 72.7588 23.5661C74.2016 24.3854 75.8848 24.8191 77.7124 24.8191C79.8766 24.8191 81.8003 24.289 83.4355 23.1806C85.0706 22.0721 86.2249 20.5782 86.8501 18.6986H81.8484C81.4155 19.2769 80.8384 19.7589 80.117 20.0962C79.3956 20.4336 78.5781 20.6263 77.7124 20.6263C76.7024 20.6263 75.7886 20.3854 75.0192 19.9516C74.2497 19.5179 73.6245 18.8914 73.2397 18.0721C73.0473 17.6866 72.855 17.2047 72.7588 16.7227H82.8102H86.4172H87.2829C87.5234 14.5541 87.2829 12.6745 86.5134 10.9878C85.7439 9.30103 84.5897 7.95163 83.0507 6.98778ZM74.9711 10.4577C75.7406 10.0239 76.6543 9.78296 77.6643 9.78296C78.8666 9.78296 79.9247 10.0721 80.7903 10.6986C81.656 11.3251 82.2331 12.1444 82.5698 13.2047C82.5698 13.301 82.6179 13.3492 82.6179 13.4456H72.7588C72.855 13.0601 72.9992 12.7227 73.1435 12.3854C73.5764 11.5661 74.2016 10.8914 74.9711 10.4577Z" fill="white"/>
<path d="M104.694 6.79598C103.299 5.9767 101.712 5.54297 99.9323 5.54297C98.1529 5.54297 96.5658 5.9767 95.1711 6.79598C94.6421 7.13333 94.1611 7.47068 93.7283 7.90442L93.584 5.92851H89.4961V30.0731H94.113V22.796C94.4497 23.0852 94.8344 23.3743 95.2673 23.6153C96.662 24.4346 98.249 24.8683 99.9804 24.8683C101.808 24.8683 103.395 24.4346 104.79 23.6153C106.184 22.7478 107.291 21.5912 108.06 20.1454C108.83 18.6996 109.214 17.0611 109.214 15.2297C109.214 13.3984 108.83 11.7116 108.012 10.2659C107.194 8.77189 106.088 7.61526 104.694 6.79598ZM103.828 17.9285C103.395 18.7478 102.77 19.3743 102 19.808C101.231 20.2418 100.317 20.4827 99.3071 20.4827C98.2971 20.4827 97.3834 20.2418 96.6139 19.808C95.7963 19.3743 95.1711 18.7478 94.7382 17.9285C94.3054 17.1092 94.0649 16.1936 94.0649 15.1815C94.0649 14.1695 94.3054 13.2538 94.7382 12.4345C95.1711 11.6153 95.7963 10.9888 96.6139 10.555C97.4315 10.1213 98.2971 9.88032 99.3071 9.88032C100.317 9.88032 101.183 10.1213 102 10.555C102.77 10.9888 103.395 11.6153 103.828 12.4345C104.261 13.2538 104.501 14.1695 104.501 15.1815C104.501 16.2418 104.261 17.1574 103.828 17.9285Z" fill="white"/>
<path d="M126.576 6.79598C125.182 5.9767 123.595 5.54297 121.815 5.54297C120.036 5.54297 118.449 5.9767 117.054 6.79598C116.525 7.13333 116.044 7.47068 115.611 7.90442L115.467 5.92851H111.379V30.0731H115.996V22.796C116.332 23.0852 116.717 23.3743 117.15 23.6153C118.545 24.4346 120.132 24.8683 121.863 24.8683C123.691 24.8683 125.278 24.4346 126.673 23.6153C128.067 22.7478 129.173 21.5912 129.943 20.1454C130.712 18.6996 131.097 17.0611 131.097 15.2297C131.097 13.3984 130.712 11.7116 129.895 10.2659C129.125 8.77189 128.019 7.61526 126.576 6.79598ZM125.759 17.9285C125.326 18.7478 124.701 19.3743 123.931 19.808C123.162 20.2418 122.248 20.4827 121.238 20.4827C120.228 20.4827 119.314 20.2418 118.545 19.808C117.727 19.3743 117.102 18.7478 116.669 17.9285C116.236 17.1092 115.996 16.1936 115.996 15.1815C115.996 14.1695 116.236 13.2538 116.669 12.4345C117.102 11.6153 117.727 10.9888 118.545 10.555C119.362 10.1213 120.228 9.88032 121.238 9.88032C122.248 9.88032 123.114 10.1213 123.931 10.555C124.701 10.9888 125.326 11.6153 125.759 12.4345C126.192 13.2538 126.432 14.1695 126.432 15.1815C126.384 16.2418 126.192 17.1574 125.759 17.9285Z" fill="white"/>
<path d="M148.125 7.85622C147.693 7.47068 147.212 7.08514 146.683 6.79598C145.288 5.92851 143.701 5.54297 141.969 5.54297C140.19 5.54297 138.603 5.9767 137.208 6.79598C135.765 7.61526 134.659 8.77189 133.89 10.2177C133.12 11.6635 132.688 13.3502 132.688 15.1815C132.688 17.0129 133.072 18.6514 133.842 20.0972C134.611 21.543 135.717 22.6996 137.112 23.5671C138.507 24.4346 140.142 24.8201 141.969 24.8201C143.701 24.8201 145.24 24.3864 146.683 23.5671C147.212 23.2297 147.693 22.8924 148.125 22.5068L148.27 24.4346H152.406V5.92851H148.27L148.125 7.85622ZM147.164 17.9285C146.731 18.7478 146.105 19.3743 145.288 19.808C144.47 20.2418 143.605 20.4827 142.595 20.4827C141.585 20.4827 140.719 20.2418 139.901 19.808C139.132 19.3743 138.507 18.7478 138.074 17.9285C137.641 17.1092 137.401 16.1936 137.401 15.1815C137.401 14.1695 137.641 13.2538 138.074 12.4345C138.507 11.6153 139.132 10.9888 139.901 10.555C140.671 10.1213 141.585 9.88032 142.595 9.88032C143.605 9.88032 144.518 10.1213 145.288 10.555C146.105 10.9888 146.731 11.6153 147.164 12.4345C147.596 13.2538 147.837 14.1695 147.837 15.1815C147.789 16.2418 147.596 17.1574 147.164 17.9285Z" fill="white"/>
<path d="M155.867 4.57832H162.456V24.482H167.41V4.57832H173.998V0H155.867V4.57832Z" fill="white"/>
<path d="M189.293 6.98778C187.754 6.02392 185.974 5.54199 183.955 5.54199C182.079 5.54199 180.444 5.97573 179.001 6.79501C177.558 7.61428 176.404 8.77091 175.586 10.2167C174.769 11.6625 174.336 13.3492 174.336 15.1806C174.336 17.0119 174.769 18.6986 175.586 20.1444C176.404 21.5902 177.558 22.7468 179.001 23.5661C180.444 24.3854 182.127 24.8191 183.955 24.8191C186.119 24.8191 188.042 24.289 189.678 23.1806C191.313 22.0721 192.467 20.5782 193.092 18.6986H188.091C187.658 19.2769 187.081 19.7589 186.359 20.0962C185.638 20.4336 184.82 20.6263 183.955 20.6263C182.945 20.6263 182.031 20.3854 181.261 19.9516C180.492 19.5179 179.867 18.8914 179.482 18.0721C179.29 17.6866 179.097 17.2047 179.001 16.7227H189.052H192.659H193.525C193.766 14.5541 193.525 12.6745 192.756 10.9878C191.986 9.30103 190.832 7.95163 189.293 6.98778ZM181.213 10.4577C181.983 10.0239 182.897 9.78296 183.906 9.78296C185.109 9.78296 186.167 10.0721 187.033 10.6986C187.898 11.3251 188.475 12.1444 188.812 13.2047C188.812 13.301 188.86 13.3492 188.86 13.4456H179.001C179.097 13.0601 179.241 12.7227 179.386 12.3854C179.867 11.5661 180.444 10.8914 181.213 10.4577Z" fill="white"/>
<path d="M206.748 15.0844L212.567 6.36147V5.92773H207.518L205.498 9.06027L203.718 11.8555L201.891 9.06027L199.871 5.92773H194.725V6.36147L200.64 15.0362L194.484 24.0482V24.482H199.727L201.891 21.2049L203.718 18.3615L205.546 21.2049L207.662 24.482H212.904V24.0482L206.748 15.0844Z" fill="white"/>
<path d="M52.3224 35.3256C52.0819 35.181 51.7933 35.1328 51.5048 35.1328H49.7734V39.9521H50.5429V38.4099H51.5529C51.8895 38.4099 52.13 38.3617 52.3705 38.2172C52.6109 38.0726 52.8033 37.8798 52.9476 37.6388C53.0919 37.3979 53.14 37.1087 53.14 36.7714C53.14 36.434 53.0919 36.1449 52.9476 35.9039C52.7552 35.6629 52.5628 35.4702 52.3224 35.3256ZM52.2262 37.2533C52.13 37.3979 52.0338 37.4943 51.8895 37.5906C51.7453 37.687 51.601 37.687 51.4086 37.687H50.4948V35.8557H51.4086C51.601 35.8557 51.7453 35.9039 51.8895 35.9521C52.0338 36.0485 52.13 36.1449 52.2262 36.2894C52.3224 36.434 52.3224 36.5786 52.3224 36.7714C52.3224 36.9641 52.2743 37.1087 52.2262 37.2533Z" fill="white"/>
<path d="M58.0926 35.3735C57.7078 35.1807 57.3231 35.0361 56.8422 35.0361C56.3612 35.0361 55.9765 35.1325 55.5917 35.3735C55.207 35.6144 54.9184 35.9036 54.7261 36.241C54.5337 36.6265 54.4375 37.0602 54.4375 37.494C54.4375 37.9759 54.5337 38.4096 54.7261 38.747C54.9184 39.1325 55.207 39.4217 55.5917 39.6145C55.9765 39.8072 56.3612 39.9518 56.8422 39.9518C57.3231 39.9518 57.7078 39.8554 58.0926 39.6145C58.4773 39.3735 58.7659 39.0843 58.9583 38.747C59.1506 38.3614 59.2949 37.9277 59.2949 37.494C59.2949 37.012 59.1987 36.5783 58.9583 36.241C58.7659 35.8554 58.4773 35.5663 58.0926 35.3735ZM58.285 38.4096C58.1407 38.6506 57.9483 38.8916 57.7078 39.0361C57.4674 39.1807 57.1788 39.2771 56.8422 39.2771C56.5055 39.2771 56.2169 39.1807 55.9765 39.0361C55.736 38.8916 55.5436 38.6988 55.3994 38.4096C55.2551 38.1687 55.207 37.8313 55.207 37.494C55.207 37.1566 55.2551 36.8675 55.3994 36.5783C55.5436 36.3373 55.736 36.0964 55.9765 35.9518C56.2169 35.8072 56.5055 35.7108 56.8422 35.7108C57.1788 35.7108 57.4674 35.8072 57.7078 35.9518C57.9483 36.0964 58.1407 36.2891 58.285 36.5783C58.4292 36.8675 58.4773 37.1566 58.4773 37.494C58.5254 37.8313 58.4292 38.1205 58.285 38.4096Z" fill="white"/>
<path d="M64.1517 38.9395C63.8631 39.1322 63.5746 39.2286 63.1898 39.2286C62.8532 39.2286 62.5646 39.1322 62.3241 38.9877C62.0837 38.8431 61.8913 38.6503 61.747 38.3611C61.6027 38.1202 61.5546 37.7828 61.5546 37.4455C61.5546 37.1081 61.6027 36.819 61.747 36.5298C61.8913 36.2889 62.0837 36.0479 62.3241 35.9033C62.5646 35.7587 62.8532 35.6623 63.1898 35.6623C63.5265 35.6623 63.8631 35.7587 64.1517 35.9515C64.4402 36.1443 64.6326 36.3852 64.7288 36.7226H65.4983C65.4021 36.3852 65.2578 36.0479 65.0174 35.8069C64.7769 35.5178 64.5364 35.325 64.1998 35.1804C63.8631 35.0358 63.5265 34.9395 63.1417 34.9395C62.7089 34.9395 62.276 35.0358 61.9394 35.2768C61.5547 35.4696 61.2661 35.8069 61.0737 36.1443C60.8813 36.5298 60.7852 36.9636 60.7852 37.3973C60.7852 37.8792 60.8813 38.313 61.0737 38.6503C61.2661 39.0358 61.5547 39.325 61.9394 39.5178C62.3241 39.7105 62.7089 39.8551 63.1417 39.8551C63.5265 39.8551 63.8631 39.7587 64.1998 39.6142C64.5364 39.4696 64.7769 39.2286 65.0174 38.9877C65.2578 38.6985 65.4021 38.4093 65.4983 38.0238H64.7288C64.6326 38.4575 64.4402 38.7467 64.1517 38.9395Z" fill="white"/>
<path d="M70.3587 38.9395C70.0701 39.1322 69.7816 39.2286 69.3968 39.2286C69.0602 39.2286 68.7716 39.1322 68.5312 38.9877C68.2907 38.8431 68.0983 38.6503 67.9541 38.3611C67.8098 38.1202 67.7617 37.7828 67.7617 37.4455C67.7617 37.1081 67.8098 36.819 67.9541 36.5298C68.0983 36.2889 68.2907 36.0479 68.5312 35.9033C68.7716 35.7587 69.0602 35.6623 69.3968 35.6623C69.7335 35.6623 70.0701 35.7587 70.3587 35.9515C70.6473 36.1443 70.8396 36.3852 70.9358 36.7226H71.7053C71.6091 36.3852 71.4649 36.0479 71.2244 35.8069C70.9839 35.5178 70.7434 35.325 70.4068 35.1804C70.0701 35.0358 69.7335 34.9395 69.3487 34.9395C68.9159 34.9395 68.4831 35.0358 68.1464 35.2768C67.7617 35.4696 67.4731 35.8069 67.2807 36.1443C67.0884 36.5298 66.9922 36.9636 66.9922 37.3973C66.9922 37.8792 67.0884 38.313 67.2807 38.6503C67.4731 39.0358 67.7617 39.325 68.1464 39.5178C68.5312 39.7105 68.9159 39.8551 69.3487 39.8551C69.7335 39.8551 70.0701 39.7587 70.4068 39.6142C70.7434 39.4696 70.9839 39.2286 71.2244 38.9877C71.4649 38.6985 71.6091 38.4093 71.7053 38.0238H70.9358C70.8396 38.4575 70.6473 38.7467 70.3587 38.9395Z" fill="white"/>
<path d="M74.155 38.4581V37.3015V35.1328H73.4336V39.9039H74.0107L76.3673 36.6268V38.5063V39.9039H77.1368V35.1328H76.5596L74.155 38.4581Z" fill="white"/>
<path d="M82.1849 33.9277H79.9727V34.5542H82.1849V33.9277Z" fill="white"/>
<path d="M79.9284 38.4581V37.3015V35.1328H79.207V39.9039H79.7841L82.1407 36.6268V38.5063V39.9039H82.9102V35.1328H82.3331L79.9284 38.4581Z" fill="white"/>
<path d="M88.054 38.9395C87.7655 39.1322 87.4769 39.2286 87.0922 39.2286C86.7555 39.2286 86.4669 39.1322 86.2265 38.9877C85.986 38.8431 85.7936 38.6503 85.6494 38.3611C85.5051 38.1202 85.457 37.7828 85.457 37.4455C85.457 37.1081 85.5051 36.819 85.6494 36.5298C85.7936 36.2889 85.986 36.0479 86.2265 35.9033C86.4669 35.7587 86.7555 35.6623 87.0922 35.6623C87.4288 35.6623 87.7655 35.7587 88.054 35.9515C88.3426 36.1443 88.5349 36.3852 88.6311 36.7226H89.4006C89.3044 36.3852 89.1602 36.0479 88.9197 35.8069C88.6792 35.5178 88.4388 35.325 88.1021 35.1804C87.7655 35.0358 87.4288 34.9395 87.0441 34.9395C86.6112 34.9395 86.1784 35.0358 85.8417 35.2768C85.457 35.4696 85.1684 35.8069 84.9761 36.1443C84.7837 36.5298 84.6875 36.9636 84.6875 37.3973C84.6875 37.8792 84.7837 38.313 84.9761 38.6503C85.1684 39.0358 85.457 39.325 85.8417 39.5178C86.2265 39.7105 86.6112 39.8551 87.0441 39.8551C87.4288 39.8551 87.7655 39.7587 88.1021 39.6142C88.4388 39.4696 88.6792 39.2286 88.9197 38.9877C89.1602 38.6985 89.3044 38.4093 89.4006 38.0238H88.6311C88.5349 38.4575 88.3426 38.7467 88.054 38.9395Z" fill="white"/>
<path d="M91.8981 35.1328H91.1289V39.9521H91.8981V35.1328Z" fill="white"/>
<path d="M94.5958 35.181V35.1328H93.7301L92.0469 37.3497V37.5906L93.8263 39.9039H94.7401V39.8557L92.8164 37.4461L94.5958 35.181Z" fill="white"/>
<path d="M96.9987 38.4581V37.3015V35.1328H96.2773V39.9039H96.8545L99.211 36.6268V38.5063V39.9039H99.9805V35.1328H99.4034L96.9987 38.4581Z" fill="white"/>
<path d="M102.772 37.8316H104.84V37.1087H102.772V35.8557H104.936V35.1328H102.051V39.9039H104.984V39.181H102.772V37.8316Z" fill="white"/>
<path d="M110.175 35.1328H109.406V39.9521H110.175V35.1328Z" fill="white"/>
<path d="M112.869 35.181V35.1328H112.004L110.32 37.3497V37.5906L112.1 39.9039H113.014V39.8557L111.09 37.4461L112.869 35.181Z" fill="white"/>
<path d="M117.971 35.3735C117.587 35.1807 117.202 35.0361 116.721 35.0361C116.24 35.0361 115.855 35.1325 115.471 35.3735C115.086 35.5663 114.797 35.9036 114.605 36.241C114.413 36.6265 114.316 37.0602 114.316 37.494C114.316 37.9759 114.413 38.4096 114.605 38.747C114.797 39.1325 115.086 39.4217 115.471 39.6145C115.855 39.8072 116.24 39.9518 116.721 39.9518C117.202 39.9518 117.587 39.8554 117.971 39.6145C118.356 39.3735 118.645 39.0843 118.837 38.747C119.03 38.3614 119.174 37.9277 119.174 37.494C119.174 37.012 119.078 36.5783 118.837 36.241C118.645 35.8554 118.356 35.5663 117.971 35.3735ZM118.164 38.4096C118.02 38.6506 117.827 38.8916 117.587 39.0361C117.346 39.1807 117.058 39.2771 116.721 39.2771C116.384 39.2771 116.096 39.1807 115.855 39.0361C115.615 38.8916 115.423 38.6988 115.278 38.4096C115.134 38.1687 115.086 37.8313 115.086 37.494C115.086 37.1566 115.134 36.8675 115.278 36.5783C115.423 36.2891 115.615 36.0964 115.855 35.9518C116.096 35.8072 116.384 35.7108 116.721 35.7108C117.058 35.7108 117.346 35.8072 117.587 35.9518C117.827 36.0964 118.02 36.2891 118.164 36.5783C118.308 36.8675 118.356 37.1566 118.356 37.494C118.356 37.8313 118.308 38.1205 118.164 38.4096Z" fill="white"/>
<path d="M124.031 38.9395C123.742 39.1322 123.453 39.2286 123.069 39.2286C122.732 39.2286 122.444 39.1322 122.203 38.9877C121.963 38.8431 121.77 38.6503 121.626 38.3611C121.482 38.1202 121.434 37.7828 121.434 37.4455C121.434 37.1081 121.482 36.819 121.626 36.5298C121.77 36.2407 121.963 36.0479 122.203 35.9033C122.444 35.7587 122.732 35.6623 123.069 35.6623C123.453 35.6623 123.742 35.7587 124.031 35.9515C124.319 36.1443 124.512 36.3852 124.608 36.7226H125.377C125.281 36.3852 125.137 36.0479 124.896 35.8069C124.656 35.566 124.415 35.325 124.079 35.1804C123.742 35.0358 123.405 34.9395 123.021 34.9395C122.588 34.9395 122.155 35.0358 121.818 35.2768C121.482 35.5178 121.145 35.8069 120.953 36.1443C120.76 36.5298 120.664 36.9636 120.664 37.3973C120.664 37.8792 120.76 38.313 120.953 38.6503C121.145 39.0358 121.434 39.325 121.818 39.5178C122.203 39.7105 122.588 39.8551 123.021 39.8551C123.405 39.8551 123.742 39.7587 124.079 39.6142C124.415 39.4696 124.656 39.2286 124.896 38.9877C125.137 38.6985 125.281 38.4093 125.377 38.0238H124.608C124.512 38.4575 124.319 38.7467 124.031 38.9395Z" fill="white"/>
<path d="M129.41 37.5906L127.679 35.1328H127.102V39.9039H127.871V38.4581V36.5786L129.17 38.5063H129.602L130.949 36.5786V38.4581V39.9039H131.67V35.1328H131.093L129.41 37.5906Z" fill="white"/>
<path d="M134.512 38.4581V37.3015V35.1328H133.742V39.9039H134.319L136.724 36.6268V38.5063V39.9039H137.493V35.1328H136.916L134.512 38.4581Z" fill="white"/>
<path d="M141.968 37.3497C141.824 37.3979 141.679 37.4461 141.583 37.4943C141.439 37.5425 141.246 37.5425 141.054 37.5425C140.717 37.5425 140.477 37.4461 140.285 37.2533C140.092 37.0605 140.044 36.7714 140.044 36.434V35.1328H139.227V36.5786C139.227 36.9159 139.275 37.2533 139.419 37.4943C139.563 37.7834 139.756 37.9762 140.044 38.1208C140.285 38.2653 140.621 38.3135 140.958 38.3135C141.246 38.3135 141.487 38.2653 141.775 38.169C141.824 38.169 141.92 38.1208 141.968 38.0726V39.9039H142.737V35.1328H141.968V37.3497Z" fill="white"/>
<path d="M145.527 37.8316H147.547V37.1087H145.527V35.8557H147.691V35.1328H144.758V39.9039H147.74V39.181H145.527V37.8316Z" fill="white"/>
<path d="M152.644 38.9395C152.355 39.1322 152.067 39.2286 151.682 39.2286C151.345 39.2286 151.057 39.1322 150.816 38.9877C150.576 38.8431 150.383 38.6503 150.239 38.3611C150.095 38.1202 150.047 37.7828 150.047 37.4455C150.047 37.1081 150.095 36.819 150.239 36.5298C150.383 36.2407 150.576 36.0479 150.816 35.9033C151.057 35.7587 151.345 35.6623 151.682 35.6623C152.067 35.6623 152.355 35.7587 152.644 35.9515C152.932 36.1443 153.125 36.3852 153.221 36.7226H153.99C153.894 36.3852 153.75 36.0479 153.51 35.8069C153.269 35.566 153.029 35.325 152.692 35.1804C152.355 35.0358 152.019 34.9395 151.634 34.9395C151.201 34.9395 150.768 35.0358 150.432 35.2768C150.095 35.5178 149.758 35.8069 149.566 36.1443C149.374 36.5298 149.277 36.9636 149.277 37.3973C149.277 37.8792 149.374 38.313 149.566 38.6503C149.758 39.0358 150.047 39.325 150.432 39.5178C150.816 39.7105 151.201 39.8551 151.634 39.8551C152.019 39.8551 152.355 39.7587 152.692 39.6142C153.029 39.4696 153.269 39.2286 153.51 38.9877C153.75 38.6985 153.894 38.4093 153.99 38.0238H153.221C153.077 38.4575 152.884 38.7467 152.644 38.9395Z" fill="white"/>
<path d="M159.135 35.181V35.1328H158.269L156.586 37.3497V37.5906L158.365 39.9039H159.279V39.8557L157.355 37.4461L159.135 35.181Z" fill="white"/>
<path d="M156.445 35.1328H155.676V39.9521H156.445V35.1328Z" fill="white"/>
<path d="M161.542 38.4581V37.3015V35.1328H160.82V39.9039H161.397L163.754 36.6268V38.5063V39.9039H164.523V35.1328H163.946L161.542 38.4581Z" fill="white"/>
<path d="M167.359 37.8316H169.379V37.1087H167.359V35.8557H169.524V35.1328H166.59V39.9039H169.572V39.181H167.359V37.8316Z" fill="white"/>
<path d="M177.074 38.9395C176.785 39.1322 176.496 39.2286 176.112 39.2286C175.775 39.2286 175.486 39.1322 175.246 38.9877C175.006 38.8431 174.813 38.6503 174.669 38.3611C174.525 38.1202 174.477 37.7828 174.477 37.4455C174.477 37.1081 174.525 36.819 174.669 36.5298C174.813 36.2407 175.006 36.0479 175.246 35.9033C175.486 35.7587 175.775 35.6623 176.112 35.6623C176.496 35.6623 176.785 35.7587 177.074 35.9515C177.362 36.1443 177.554 36.3852 177.651 36.7226H178.42C178.324 36.3852 178.18 36.0479 177.939 35.8069C177.699 35.566 177.458 35.325 177.122 35.1804C176.785 35.0358 176.448 34.9395 176.064 34.9395C175.631 34.9395 175.198 35.0358 174.861 35.2768C174.525 35.5178 174.188 35.8069 173.996 36.1443C173.803 36.5298 173.707 36.9636 173.707 37.3973C173.707 37.8792 173.803 38.313 173.996 38.6503C174.188 39.0358 174.477 39.325 174.861 39.5178C175.246 39.7105 175.631 39.8551 176.064 39.8551C176.448 39.8551 176.785 39.7587 177.122 39.6142C177.458 39.4696 177.699 39.2286 177.939 38.9877C178.18 38.6985 178.324 38.4093 178.42 38.0238H177.651C177.554 38.4575 177.362 38.7467 177.074 38.9395Z" fill="white"/>
<path d="M180.926 38.4581V37.3015V35.1328H180.156V39.9039H180.733L183.09 36.6268V38.5063V39.9039H183.859V35.1328H183.282L180.926 38.4581Z" fill="white"/>
<path d="M189.05 38.9395C188.762 39.1322 188.473 39.2286 188.088 39.2286C187.752 39.2286 187.463 39.1322 187.223 38.9877C186.982 38.8431 186.79 38.6503 186.645 38.3611C186.501 38.1202 186.453 37.7828 186.453 37.4455C186.453 37.1081 186.501 36.819 186.645 36.5298C186.79 36.2407 186.982 36.0479 187.223 35.9033C187.463 35.7587 187.752 35.6623 188.088 35.6623C188.473 35.6623 188.762 35.7587 189.05 35.9515C189.339 36.1443 189.531 36.3852 189.627 36.7226H190.397C190.301 36.3852 190.156 36.0479 189.916 35.8069C189.675 35.566 189.435 35.325 189.098 35.1804C188.762 35.0358 188.425 34.9395 188.04 34.9395C187.607 34.9395 187.174 35.0358 186.838 35.2768C186.501 35.5178 186.165 35.8069 185.972 36.1443C185.78 36.5298 185.684 36.9636 185.684 37.3973C185.684 37.8792 185.78 38.313 185.972 38.6503C186.165 39.0358 186.453 39.325 186.838 39.5178C187.223 39.7105 187.607 39.8551 188.04 39.8551C188.425 39.8551 188.762 39.7587 189.098 39.6142C189.435 39.4696 189.675 39.2286 189.916 38.9877C190.156 38.6985 190.301 38.4093 190.397 38.0238H189.627C189.483 38.4575 189.291 38.7467 189.05 38.9395Z" fill="white"/>
<path d="M191.645 35.8075H193.039V39.9039H193.809V35.8075H195.155V35.1328H191.645V35.8075Z" fill="white"/>
<path d="M197.562 37.8316H199.582V37.1087H197.562V35.8557H199.727V35.1328H196.793V39.9039H199.775V39.181H197.562V37.8316Z" fill="white"/>
<path d="M203.811 37.5906L202.128 35.1328H201.551V39.9039H202.272V38.4581V36.5786L203.619 38.5063H204.052L205.35 36.5786V38.4581V39.9039H206.12V35.1328H205.543L203.811 37.5906Z" fill="white"/>
<path d="M213 35.1328H212.23V39.9521H213V35.1328Z" fill="white"/>
<path d="M210.79 36.9159C210.549 36.7714 210.261 36.7232 209.972 36.7232H208.914V35.1328H208.145V39.9521H209.924C210.213 39.9521 210.501 39.9039 210.742 39.7593C210.982 39.6147 211.174 39.422 211.271 39.181C211.367 38.94 211.463 38.6509 211.463 38.3617C211.463 38.0244 211.415 37.7834 211.271 37.5425C211.126 37.3015 211.03 37.0605 210.79 36.9159ZM210.645 38.7955C210.549 38.94 210.453 39.0364 210.357 39.0846C210.213 39.1328 210.068 39.181 209.876 39.181H208.914V37.4461H209.876C210.068 37.4461 210.213 37.4943 210.357 37.5425C210.501 37.5906 210.597 37.7352 210.645 37.8316C210.693 37.928 210.742 38.1208 210.742 38.3135C210.742 38.5063 210.742 38.6509 210.645 38.7955Z" fill="white"/>
</svg>
