<svg width="122" height="100" viewBox="0 0 122 100" fill="none" xmlns="http://www.w3.org/2000/svg">
<g clip-path="url(#clip0_13672_73001)">
<path d="M29.0678 63.1123L22.7335 84.6554C22.0827 86.9094 19.7399 88.1664 17.4839 87.5163C15.2278 86.8661 13.9696 84.5254 14.6204 82.2713L22.3864 55.8301C25.1197 56.6537 27.3324 59.1244 29.0678 63.1123Z" stroke="#0066FF" stroke-width="2" stroke-linecap="round" stroke-linejoin="round"/>
<path d="M44.2531 37.9276L59.6116 21.5427C61.2168 19.8522 61.13 17.1647 59.3946 15.5609C57.7026 13.9571 55.0127 14.0438 53.4074 15.7776L34.5781 35.8903C36.6606 37.8409 39.9579 38.4478 44.2531 37.9276Z" stroke="#0066FF" stroke-width="2" stroke-linecap="round" stroke-linejoin="round"/>
<path d="M62.737 96.8789L61.1751 95.3184C60.5677 94.7116 60.264 93.9313 60.2207 93.1077L60.1339 88.3396C60.1339 87.4727 59.7868 86.6491 59.136 86.0423L45.3828 72.3015C47.7256 68.9205 51.1097 66.7098 55.9689 66.2764L74.4511 84.7419C75.232 85.5221 75.232 86.8225 74.4511 87.6028L67.466 96.5755C66.2946 98.0926 64.0386 98.2226 62.6936 96.8789H62.737Z" stroke="#0066FF" stroke-width="2" stroke-linecap="round" stroke-linejoin="round"/>
<path d="M90.199 49.6749L88.0297 49.2848C87.2054 49.1548 86.3811 49.2848 85.6869 49.7616L81.7388 52.4057C81.0013 52.8825 80.1336 53.0559 79.2658 52.9259L60.1328 49.4148C58.6577 53.2727 58.7879 57.3039 61.1741 61.5518L86.8583 66.2766C87.9429 66.4933 89.0276 65.7564 89.2011 64.6294L92.6286 53.7928C93.1926 51.9723 92.0646 50.0217 90.1556 49.6749H90.199Z" stroke="#0066FF" stroke-width="2" stroke-linecap="round" stroke-linejoin="round"/>
<path d="M56.0117 66.2769C58.181 65.7134 60.0032 64.3263 61.1746 61.5088" stroke="#0066FF" stroke-width="2" stroke-linecap="round" stroke-linejoin="round"/>
<path d="M44.2539 37.9277L60.133 49.3712" stroke="#0066FF" stroke-width="2" stroke-linecap="round" stroke-linejoin="round"/>
<path d="M29.0664 63.1123L45.4227 72.3017" stroke="#0066FF" stroke-width="2" stroke-linecap="round" stroke-linejoin="round"/>
<path d="M22.3867 55.8303C24.5994 49.2417 28.4607 42.5663 34.578 35.8477" stroke="#0066FF" stroke-width="2" stroke-linecap="round" stroke-linejoin="round"/>
<path d="M49.9011 49.6814L45.7347 46.861C44.5048 46.0284 42.8323 46.3496 41.999 47.5784L35.8419 56.6573C35.0086 57.886 35.3301 59.557 36.56 60.3896L40.7264 63.21C41.9562 64.0426 43.6288 63.7214 44.4621 62.4927L50.6191 53.4138C51.4524 52.185 51.131 50.514 49.9011 49.6814Z" stroke="#0066FF" stroke-width="2" stroke-linecap="round" stroke-linejoin="round"/>
<path d="M4.83464 32.3859L5.27269 31.7399C10.0426 24.7065 19.6472 22.8309 26.7229 27.6208C31.5358 30.8789 32.7982 37.4406 29.5371 42.2491L23.6478 50.9333C20.3624 55.7777 13.7589 57.0146 8.94596 53.7565C1.90617 48.991 0.0647577 39.4193 4.83464 32.3859Z" stroke="#0066FF" stroke-width="2" stroke-linecap="round" stroke-linejoin="round"/>
<path d="M27.332 69.0508L39.1329 76.1162C40.5212 76.9398 42.2133 77.0265 43.6884 76.3763L47.6364 74.5558" stroke="#0066FF" stroke-width="2" stroke-linecap="round" stroke-linejoin="round"/>
<path d="M14.4474 56.0469L13.7966 57.3039C12.9289 58.9944 13.4929 61.075 15.0982 62.072L19.6971 65.0196" stroke="#0066FF" stroke-width="2" stroke-linecap="round" stroke-linejoin="round"/>
<path d="M29.0664 29.4323L30.4547 27.8718C31.7129 26.4847 33.752 26.1813 35.3139 27.2216L39.9128 30.1692" stroke="#0066FF" stroke-width="2" stroke-linecap="round" stroke-linejoin="round"/>
<path d="M47.6797 34.2871L59.2202 42.3062C60.4784 43.1731 61.216 44.5602 61.216 46.0773V49.5884" stroke="#0066FF" stroke-width="2" stroke-linecap="round" stroke-linejoin="round"/>
<path d="M54.4062 39.3149C54.4062 39.3149 61.4781 29.9521 71.1964 30.1688C80.9148 30.3855 80.264 36.1072 89.9823 36.8441C99.7007 37.581 112.413 28.3916 112.413 28.3916" stroke="#0066FF" stroke-width="2" stroke-linecap="round" stroke-linejoin="round"/>
<path d="M104.993 58.1705C109.09 58.1705 112.412 45.6337 112.412 30.1687C112.412 14.7038 109.09 2.16699 104.993 2.16699C100.896 2.16699 97.5742 14.7038 97.5742 30.1687C97.5742 45.6337 100.896 58.1705 104.993 58.1705Z" stroke="#0066FF" stroke-width="2" stroke-linecap="round" stroke-linejoin="round"/>
<path d="M104.992 2.16699H112.411C116.489 2.16699 119.83 14.6941 119.83 30.1687C119.83 45.6434 116.489 58.1705 112.411 58.1705H104.992" stroke="#0066FF" stroke-width="2" stroke-linecap="round" stroke-linejoin="round"/>
<path d="M9.89252 32.7963L7.60492 36.1694C4.98403 40.0341 5.99512 45.2897 9.86325 47.9083L10.0428 48.0298C13.911 50.6484 19.1714 49.6382 21.7923 45.7735L24.0799 42.4004C26.7007 38.5357 25.6897 33.2801 21.8215 30.6615L21.6419 30.54C17.7738 27.9214 12.5134 28.9316 9.89252 32.7963Z" stroke="#0066FF" stroke-width="2" stroke-linecap="round" stroke-linejoin="round"/>
</g>
<defs>
<clipPath id="clip0_13672_73001">
<rect width="122" height="100" fill="white"/>
</clipPath>
</defs>
</svg>
