<svg width="73" height="100" viewBox="0 0 73 100" fill="none" xmlns="http://www.w3.org/2000/svg">
<path d="M70.8594 27.0223C70.8594 40.7486 59.7638 65.8347 46.0977 65.8347C32.4316 65.8347 21.3359 40.7486 21.3359 27.0223C21.3359 13.2959 32.3888 2.15137 46.0977 2.15137C59.8066 2.15137 70.8594 13.2959 70.8594 27.0223Z" stroke="#0066FF" stroke-width="2" stroke-linecap="round" stroke-linejoin="round"/>
<path d="M62.0314 36.8328C62.0314 36.8328 62.7168 42.5556 59.6323 45.6538C56.5478 48.7519 50.8501 48.0634 50.8501 48.0634C50.8501 48.0634 50.1646 42.3405 53.2491 39.2424C56.3336 36.1443 62.0314 36.8328 62.0314 36.8328Z" stroke="#0066FF" stroke-width="2" stroke-linecap="round" stroke-linejoin="round"/>
<path d="M30.3305 36.8328C30.3305 36.8328 29.6451 42.5556 32.7296 45.6538C35.8141 48.7519 41.5119 48.0634 41.5119 48.0634C41.5119 48.0634 42.1973 42.3405 39.1128 39.2424C36.0283 36.1443 30.3305 36.8328 30.3305 36.8328Z" stroke="#0066FF" stroke-width="2" stroke-linecap="round" stroke-linejoin="round"/>
<path d="M35.9414 21.5576L42.6673 25.3442C43.9526 26.0757 45.4948 26.1187 46.8229 25.4733L54.7912 21.6006" stroke="#0066FF" stroke-width="2" stroke-linecap="round" stroke-linejoin="round"/>
<path d="M35.9414 29.1738L42.6673 32.9604C43.9526 33.6919 45.4948 33.7349 46.8229 33.0895L54.7912 29.2169" stroke="#0066FF" stroke-width="2" stroke-linecap="round" stroke-linejoin="round"/>
<path d="M49.7383 65.835L50.6808 69.2343C51.3662 71.6439 53.4226 73.4081 55.9073 73.7093C58.5634 74.0105 61.0053 75.4305 62.5476 77.668L62.976 78.2704C63.9613 79.6474 64.4754 81.2825 64.4754 82.9606V97.8918" stroke="#0066FF" stroke-width="2" stroke-linecap="round" stroke-linejoin="round"/>
<path d="M41.5543 65.835L40.6118 69.2343C39.9263 71.6439 37.87 73.4081 35.3853 73.7093C32.7291 74.0105 30.2872 75.4305 28.745 77.668L28.3166 78.2704C27.7597 79.088 27.3313 79.9916 27.0742 80.9382" stroke="#0066FF" stroke-width="2" stroke-linecap="round" stroke-linejoin="round"/>
<path d="M54.793 85.542V97.8484" stroke="#0066FF" stroke-width="2" stroke-linecap="round" stroke-linejoin="round"/>
<path d="M29.4748 87.435L21.9777 73.3645C21.9777 73.3645 24.848 70.3524 24.2911 67.8998C23.7342 65.4471 20.4783 64.3283 20.4783 64.3283V50.5159C20.4783 50.5159 21.1209 46.8154 17.8651 46.8154C14.6092 46.8154 14.9091 49.6984 14.9091 49.6984V62.2629L7.84042 50.645C7.84042 50.645 6.1268 48.2784 3.77058 49.6984C1.11448 51.2905 2.52821 54.2165 2.52821 54.2165L9.89676 65.0168L9.12563 67.5555C8.56871 69.3628 8.69723 71.2991 9.51119 72.9772L21.3351 97.8051" stroke="#0066FF" stroke-width="2" stroke-linecap="round" stroke-linejoin="round"/>
</svg>
