<svg width="98" height="100" viewBox="0 0 98 100" fill="none" xmlns="http://www.w3.org/2000/svg">
<path d="M95.0314 2.74034C95.0314 2.74034 75.9772 -0.865426 60.6572 15.1442L38.7305 38.0769L50.412 49.375L62.0934 60.673L84.0202 37.7403C99.2923 21.7307 94.9835 2.74034 94.9835 2.74034H95.0314Z" stroke="#0066FF" stroke-width="2" stroke-linecap="round" stroke-linejoin="round"/>
<path d="M73.8726 32.1155C77.8387 32.1155 81.0539 28.8867 81.0539 24.9039C81.0539 20.9211 77.8387 17.6924 73.8726 17.6924C69.9066 17.6924 66.6914 20.9211 66.6914 24.9039C66.6914 28.8867 69.9066 32.1155 73.8726 32.1155Z" stroke="#0066FF" stroke-width="2" stroke-linecap="round" stroke-linejoin="round"/>
<path d="M53.0342 50.8759C59.7933 43.8102 64.206 37.0534 62.8903 35.7842C61.5747 34.515 55.0288 39.214 48.2697 46.2797C41.5106 53.3454 37.0978 60.1022 38.4135 61.3714C39.7292 62.6406 46.2751 57.9416 53.0342 50.8759Z" stroke="#0066FF" stroke-width="2" stroke-linecap="round" stroke-linejoin="round"/>
<path d="M56.2542 19.7592L46.6313 18.8457L23.6992 38.7496L32.3646 47.0669L39.9288 39.1822" stroke="#0066FF" stroke-width="2" stroke-linecap="round" stroke-linejoin="round"/>
<path d="M79.8087 42.5L81.1492 52.1154L62.2386 75.9135L53.6211 67.5962L61.1375 59.6635" stroke="#0066FF" stroke-width="2" stroke-linecap="round" stroke-linejoin="round"/>
<path d="M43.4716 42.5957L39.5938 46.6342L43.9025 50.8169" stroke="#0066FF" stroke-width="2" stroke-linecap="round" stroke-linejoin="round"/>
<path d="M56.8741 55.5769L52.9962 59.6153L48.6875 55.4326" stroke="#0066FF" stroke-width="2" stroke-linecap="round" stroke-linejoin="round"/>
<path d="M18.3369 46.875L2.39453 63.5577" stroke="#0066FF" stroke-width="2" stroke-linecap="round" stroke-linejoin="round"/>
<path d="M25.5176 57.5L13.4531 70.1442" stroke="#0066FF" stroke-width="2" stroke-linecap="round" stroke-linejoin="round"/>
<path d="M53.6181 80.9131L37.6758 97.5958" stroke="#0066FF" stroke-width="2" stroke-linecap="round" stroke-linejoin="round"/>
<path d="M42.752 74.1826L30.6875 86.7788" stroke="#0066FF" stroke-width="2" stroke-linecap="round" stroke-linejoin="round"/>
<path d="M31.8829 67.2119L15.6055 84.2312" stroke="#0066FF" stroke-width="2" stroke-linecap="round" stroke-linejoin="round"/>
<path d="M79.9023 3.75C82.0088 11.1538 87.0836 15.7692 94.6478 17.9808" stroke="#0066FF" stroke-width="2" stroke-linecap="round" stroke-linejoin="round"/>
</svg>
