<svg width="121" height="100" viewBox="0 0 121 100" fill="none" xmlns="http://www.w3.org/2000/svg">
<path d="M60.6119 92.3116C66.7834 92.3116 71.7864 89.711 71.7864 86.503C71.7864 83.295 66.7834 80.6943 60.6119 80.6943C54.4405 80.6943 49.4375 83.295 49.4375 86.503C49.4375 89.711 54.4405 92.3116 60.6119 92.3116Z" stroke="#0066FF" stroke-width="2" stroke-linecap="round" stroke-linejoin="round"/>
<path d="M32.7606 71.4313C39.0716 68.2034 42.691 62.6076 40.8449 58.9326C38.9988 55.2576 32.3863 54.8952 26.0754 58.1231C19.7644 61.351 16.145 66.9469 17.9911 70.6219C19.8372 74.2968 26.4497 74.6593 32.7606 71.4313Z" stroke="#0066FF" stroke-width="2" stroke-linecap="round" stroke-linejoin="round"/>
<path d="M98.736 71.2113C100.436 68.8035 98.4807 64.4549 94.3684 61.4983C90.2561 58.5417 85.5442 58.0968 83.844 60.5046C82.1439 62.9124 84.0993 67.261 88.2116 70.2176C92.324 73.1742 97.0359 73.6191 98.736 71.2113Z" stroke="#0066FF" stroke-width="2" stroke-linecap="round" stroke-linejoin="round"/>
<path d="M2.82031 96.1275C2.82031 96.1275 5.75501 83.0295 11.1729 80.7516C16.5908 78.4737 18.2839 74.1457 18.0017 70.6719" stroke="#0066FF" stroke-width="2" stroke-linecap="round" stroke-linejoin="round"/>
<path d="M40.8047 58.9406C40.8047 58.9406 46.7305 61.1046 49.4395 58.1433C52.1484 55.182 54.0108 53.3027 60.6139 53.3027C67.217 53.3027 75.9647 58.5989 75.9647 58.5989" stroke="#0066FF" stroke-width="2" stroke-linecap="round" stroke-linejoin="round"/>
<path d="M99.2164 69.7041C99.2164 69.7041 98.7649 75.9114 101.7 77.7907C104.634 79.6699 114.454 79.4991 118.236 97.2098" stroke="#0066FF" stroke-width="2" stroke-linecap="round" stroke-linejoin="round"/>
<path d="M49.4388 88.0977C49.4388 88.0977 49.0438 94.191 37.9258 93.3938" stroke="#0066FF" stroke-width="2" stroke-linecap="round" stroke-linejoin="round"/>
<path d="M71.7891 86.5039C71.7891 86.5039 73.4822 94.3627 80.7625 93.4515" stroke="#0066FF" stroke-width="2" stroke-linecap="round" stroke-linejoin="round"/>
<path d="M60.6133 53.3026V9.85156" stroke="#0066FF" stroke-width="2" stroke-linecap="round" stroke-linejoin="round"/>
<path d="M61.5721 31.606C62.1929 32.0046 63.4345 37.073 71.7871 33.4853C80.1397 29.8976 86.4042 22.3235 94.7568 26.7085V4.55588C94.7568 4.55588 88.0408 -0.0568776 80.7605 5.80873C73.4802 11.6743 68.6266 12.9841 61.5156 10.8771" stroke="#0066FF" stroke-width="2" stroke-linecap="round" stroke-linejoin="round"/>
</svg>
