<svg width="134" height="100" viewBox="0 0 134 100" fill="none" xmlns="http://www.w3.org/2000/svg">
<path d="M59.7177 32.3431C50.3312 17.6563 45.638 5.50727 48.8208 3.13146C51.2483 1.3496 57.7217 5.56126 65.5977 13.5526" stroke="#0066FF" stroke-width="2" stroke-linecap="round" stroke-linejoin="round"/>
<path d="M91.0594 46.4904C99.2591 59.9354 103.197 70.6805 100.176 72.8943C96.1842 75.8641 81.4571 62.5811 67.2695 43.3047" stroke="#0066FF" stroke-width="2" stroke-linecap="round" stroke-linejoin="round"/>
<path d="M100.176 72.8943C91.0052 79.6977 72.0165 69.5465 57.8289 50.2701C43.6413 30.9936 39.6494 9.8813 48.8201 3.13184" stroke="#0066FF" stroke-width="2" stroke-linecap="round" stroke-linejoin="round"/>
<path d="M96.8327 42.0091C102.443 36.5015 103.306 27.5922 98.505 21.0588C93.2723 13.9313 83.2385 12.4195 76.0637 17.657L66.7852 24.5145C63.2248 27.1063 82.2674 52.9702 85.7739 50.3784L91.4921 46.1668" stroke="#0066FF" stroke-width="2" stroke-linecap="round" stroke-linejoin="round"/>
<path d="M97.5332 19.8709C101.417 18.251 106.272 18.035 111.127 19.6009C120.244 22.5707 125.693 30.778 123.373 37.9054C121.053 45.0329 111.775 48.4346 102.712 45.4648C95.1057 42.981 89.9809 36.8255 89.927 30.67C89.927 30.67 89.0638 26.9443 86.5284 27.1063C82.2128 27.4303 82.5904 30.832 82.5904 30.832C83.2378 39.3093 90.3585 47.6247 100.878 51.0264C113.933 55.292 127.203 50.4324 130.548 40.1733C133.892 29.9141 126.016 18.143 112.962 13.8774C104.978 11.2856 96.8859 12.0955 91.0598 15.4432" stroke="#0066FF" stroke-width="2" stroke-linecap="round" stroke-linejoin="round"/>
<path d="M35.928 85.4751C29.1309 90.4967 19.5286 89.0388 14.5117 82.2354" stroke="#0066FF" stroke-width="2" stroke-linecap="round" stroke-linejoin="round"/>
<path d="M63.0069 56.6417C60.2017 58.6936 57.5045 60.8534 55.1309 63.3912C53.4586 65.1731 51.5166 67.1709 50.9771 69.6547C50.5455 71.7605 51.1389 73.9744 50.8692 76.1342C50.6534 77.916 50.2219 79.6439 49.6285 81.3178C48.3877 84.7195 46.4457 87.8512 43.8563 90.389C43.0472 91.199 42.1301 91.9549 41.213 92.6569C30.4779 100.594 15.3193 98.2724 7.38935 87.5273C-0.540606 76.7821 1.77904 61.6093 12.5141 53.672C15.4272 51.5121 18.8797 50.0543 22.494 49.4063C24.3821 49.0823 26.2702 48.7044 28.1583 48.8664C30.0464 49.0284 31.9344 49.5683 33.7686 50.1083C35.0633 50.4862 36.3579 50.8642 37.6526 50.9722C41.1591 51.2422 44.5037 49.0284 47.4167 47.3545C49.4127 46.1666 51.3547 44.8167 53.1889 43.4668" stroke="#0066FF" stroke-width="2" stroke-linecap="round" stroke-linejoin="round"/>
</svg>
