<svg width="454" height="700" viewBox="0 0 454 700" fill="none" xmlns="http://www.w3.org/2000/svg">
<g clip-path="url(#clip0_13705_77419)">
<path d="M404.656 582.684C431.352 582.684 453.002 561.127 453.002 534.547C453.002 507.967 431.352 486.41 404.656 486.41" stroke="white" stroke-miterlimit="10"/>
<path d="M404.656 582.684C431.352 582.684 453.002 561.127 453.002 534.547C453.002 507.967 431.352 486.41 404.656 486.41" stroke="white" stroke-linecap="round" stroke-linejoin="round"/>
<path d="M444.162 534.527C444.162 512.815 426.482 495.192 404.656 495.192" stroke="white" stroke-linecap="round" stroke-linejoin="round"/>
<path d="M0.980469 622C0.980469 600.288 18.6601 582.665 40.4859 582.665" stroke="white" stroke-linecap="round" stroke-linejoin="round"/>
<path d="M123.84 328.506C127.497 346.265 143.28 359.623 162.191 359.623" stroke="white" stroke-linecap="round" stroke-linejoin="round"/>
<path d="M98.63 427.524C85.1356 427.524 74.1836 438.429 74.1836 451.865C74.1836 465.302 85.1356 476.206 98.63 476.206" stroke="white" stroke-linecap="round" stroke-linejoin="round"/>
<path d="M256.102 173.775C256.102 170.075 259.113 167.077 262.829 167.077H262.36C279.414 167.077 293.241 153.309 293.241 136.329C293.241 119.349 279.414 105.582 262.36 105.582C259.583 105.582 257.314 103.323 257.314 100.558" stroke="white" stroke-linejoin="round"/>
<path d="M392.531 427.875C392.531 423.942 395.739 420.748 399.689 420.748H399.787C399.787 417.516 402.427 414.887 405.674 414.887C408.92 414.887 411.56 417.516 411.56 420.748C411.56 415.218 416.215 410.759 421.828 411.07C427.089 411.343 431.039 416.055 431.039 421.313V422.481C431.039 424.195 432.428 425.597 434.168 425.597H442.089" stroke="white" stroke-linecap="round" stroke-linejoin="round"/>
<path d="M100.464 358.474H95.7112C94.0293 358.474 92.6603 357.111 92.6603 355.436C92.6603 355.436 92.6603 353.333 92.6603 352.944C92.6603 348.893 89.3552 345.602 85.2873 345.602C81.2194 345.602 77.9142 348.893 77.9142 352.944C77.9142 346.888 72.9858 342 66.9231 342C60.8604 342 55.932 346.907 55.932 352.944V352.846C55.932 355.709 53.6047 358.026 50.7298 358.026H42.418" stroke="white" stroke-linecap="round" stroke-linejoin="round"/>
<path d="M222.951 8.19824H197.898V20.5635H222.951V8.19824Z" stroke="white" stroke-linejoin="round"/>
<path d="M232.438 14.3906H222.953" stroke="white" stroke-miterlimit="10"/>
<path d="M256.924 20.5625L281.977 20.5625V8.19729L256.924 8.19729V20.5625Z" stroke="white" stroke-linejoin="round"/>
<path d="M247.418 14.3906H256.903" stroke="white" stroke-miterlimit="10"/>
<path d="M240.047 35.0315C244.832 35.0315 248.71 32.9391 248.71 30.358C248.71 27.777 244.832 25.6846 240.047 25.6846C235.262 25.6846 231.383 27.777 231.383 30.358C231.383 32.9391 235.262 35.0315 240.047 35.0315Z" stroke="white" stroke-miterlimit="10"/>
<path d="M245.64 40.6982C244.525 42.626 242.432 43.9112 240.046 43.9112C237.661 43.9112 235.568 42.626 234.453 40.6982" stroke="white" stroke-miterlimit="10" stroke-linecap="round"/>
<path d="M248.24 45.04C246.598 47.8636 243.547 49.7525 240.046 49.7525C236.545 49.7525 233.494 47.8636 231.852 45.04" stroke="white" stroke-miterlimit="10" stroke-linecap="round"/>
<path d="M232.434 28.1187V8.4317C232.434 4.30348 235.797 0.973633 239.924 0.973633C244.051 0.973633 247.414 4.32295 247.414 8.4317V27.9045" stroke="white" stroke-miterlimit="10"/>
<path d="M258.036 74.9508L260.598 80.1305C260.715 80.3642 260.95 80.5395 261.204 80.5784L266.954 81.4157C267.619 81.5131 267.873 82.3115 267.404 82.7788L263.238 86.8097C263.043 86.985 262.964 87.2576 263.003 87.5302L263.981 93.2357C264.099 93.8978 263.395 94.3846 262.808 94.0731L257.664 91.3858C257.43 91.269 257.156 91.269 256.921 91.3858L251.778 94.0731C251.191 94.3846 250.487 93.8783 250.604 93.2357L251.582 87.5302C251.621 87.2771 251.543 87.0044 251.347 86.8097L247.182 82.7788C246.712 82.3115 246.967 81.5131 247.632 81.4157L253.381 80.5784C253.636 80.5395 253.87 80.3837 253.988 80.1305L256.55 74.9508C256.843 74.3471 257.703 74.3471 257.997 74.9508H258.036Z" stroke="white" stroke-linejoin="round"/>
<path d="M257.312 100.538V92.2422" stroke="white" stroke-linejoin="round"/>
<path d="M239.927 56.4316V65.5644C239.927 69.1474 237.013 72.0488 233.414 72.0488H223.655C214.365 72.0488 206.836 79.5458 206.836 88.7954C206.836 98.045 214.365 105.542 223.655 105.542H252.248C255.025 105.542 257.293 103.283 257.293 100.518" stroke="white" stroke-linejoin="round"/>
<path d="M215.604 118.95L246.139 149.352C246.994 150.204 248.381 150.204 249.236 149.352L250.329 148.265C251.184 147.413 251.184 146.032 250.329 145.18L219.794 114.778C218.939 113.926 217.552 113.926 216.697 114.778L215.604 115.865C214.749 116.717 214.749 118.098 215.604 118.95Z" stroke="white" stroke-miterlimit="10"/>
<path d="M244.661 123.555C246.529 123.555 248.044 122.047 248.044 120.186C248.044 118.326 246.529 116.817 244.661 116.817C242.792 116.817 241.277 118.326 241.277 120.186C241.277 122.047 242.792 123.555 244.661 123.555Z" stroke="white" stroke-miterlimit="10"/>
<path d="M244.367 126.632V139.231" stroke="white" stroke-miterlimit="10"/>
<path d="M238.423 120.557H225.574" stroke="white" stroke-miterlimit="10"/>
<path d="M242.389 122.679L235.055 129.981" stroke="white" stroke-miterlimit="10"/>
<path d="M242.568 148.792C240.476 149.473 238.266 149.843 235.938 149.843C224.184 149.843 214.66 140.36 214.66 128.657C214.66 126.573 214.973 124.548 215.521 122.64" stroke="white" stroke-miterlimit="10"/>
<path d="M217.983 140.186L213.915 144.236C212.174 145.969 212.174 148.754 213.915 150.487L214.404 150.973C216.144 152.707 218.941 152.707 220.682 150.973L224.749 146.923" stroke="white" stroke-miterlimit="10"/>
<path d="M221.684 152.647L223.522 160.164" stroke="white" stroke-miterlimit="10"/>
<path d="M212.999 152.647L211.16 160.164" stroke="white" stroke-miterlimit="10"/>
<path d="M241.277 167.408V162.617C241.277 161.215 240.143 160.105 238.754 160.105H196.98C195.572 160.105 194.457 161.235 194.457 162.617V167.408" stroke="white" stroke-miterlimit="10"/>
<path d="M256.106 173.775C256.106 170.075 253.094 167.076 249.378 167.076H192.682C177.173 167.076 164.598 179.597 164.598 195.039C164.598 210.481 177.173 223.002 192.682 223.002" stroke="white" stroke-linejoin="round"/>
<path d="M256.102 173.774V179.772" stroke="white" stroke-linejoin="round"/>
<path d="M256.102 198.466C261.287 198.466 265.49 194.282 265.49 189.119C265.49 183.957 261.287 179.772 256.102 179.772C250.918 179.772 246.715 183.957 246.715 189.119C246.715 194.282 250.918 198.466 256.102 198.466Z" stroke="white" stroke-linejoin="round"/>
<path d="M260.658 189.119C260.658 191.631 258.624 193.656 256.102 193.656" stroke="white" stroke-linejoin="round"/>
<path d="M259.015 311.097C263.833 311.097 267.738 307.209 267.738 302.412C267.738 297.616 263.833 293.728 259.015 293.728C254.198 293.728 250.293 297.616 250.293 302.412C250.293 307.209 254.198 311.097 259.015 311.097Z" stroke="white" stroke-linecap="round" stroke-linejoin="round"/>
<path d="M263.24 302.412C263.24 304.729 261.343 306.618 259.016 306.618" stroke="white" stroke-linecap="round" stroke-linejoin="round"/>
<path d="M117.656 130.701H122.252C122.252 126.437 125.733 122.971 130.016 122.971C132.285 122.971 134.319 123.944 135.727 125.463C135.727 119.076 141.242 113.955 147.813 114.578C153.544 115.123 157.729 120.225 157.729 125.95V127.819C157.729 129.397 159.02 130.682 160.604 130.682H167.586" stroke="white" stroke-linecap="round" stroke-linejoin="round"/>
<path d="M195.534 224.716C196.603 224.716 197.47 223.853 197.47 222.788C197.47 221.723 196.603 220.86 195.534 220.86C194.465 220.86 193.598 221.723 193.598 222.788C193.598 223.853 194.465 224.716 195.534 224.716Z" stroke="white" stroke-miterlimit="10"/>
<path d="M236.76 224.715C237.83 224.715 238.697 223.852 238.697 222.787C238.697 221.722 237.83 220.859 236.76 220.859C235.691 220.859 234.824 221.722 234.824 222.787C234.824 223.852 235.691 224.715 236.76 224.715Z" stroke="white" stroke-miterlimit="10"/>
<path d="M216.145 225.826C217.83 225.826 219.196 224.465 219.196 222.788C219.196 221.11 217.83 219.75 216.145 219.75C214.46 219.75 213.094 221.11 213.094 222.788C213.094 224.465 214.46 225.826 216.145 225.826Z" stroke="white" stroke-miterlimit="10"/>
<path d="M232.107 204.775H200.151C199.146 204.775 198.332 205.586 198.332 206.586V212.798C198.332 213.798 199.146 214.609 200.151 214.609H232.107C233.112 214.609 233.926 213.798 233.926 212.798V206.586C233.926 205.586 233.112 204.775 232.107 204.775Z" stroke="white" stroke-miterlimit="10"/>
<path d="M201.77 209.702H216.477" stroke="white" stroke-miterlimit="10" stroke-linecap="round"/>
<path d="M223.247 210.15C223.495 210.15 223.697 209.949 223.697 209.702C223.697 209.454 223.495 209.254 223.247 209.254C222.998 209.254 222.797 209.454 222.797 209.702C222.797 209.949 222.998 210.15 223.247 210.15Z" stroke="white" stroke-miterlimit="10" stroke-linecap="round"/>
<path d="M229.149 210.15C229.397 210.15 229.599 209.949 229.599 209.702C229.599 209.454 229.397 209.254 229.149 209.254C228.901 209.254 228.699 209.454 228.699 209.702C228.699 209.949 228.901 210.15 229.149 210.15Z" stroke="white" stroke-miterlimit="10" stroke-linecap="round"/>
<path d="M232.107 190.949H200.151C199.146 190.949 198.332 191.76 198.332 192.76V198.972C198.332 199.972 199.146 200.783 200.151 200.783H232.107C233.112 200.783 233.926 199.972 233.926 198.972V192.76C233.926 191.76 233.112 190.949 232.107 190.949Z" stroke="white" stroke-miterlimit="10"/>
<path d="M201.77 195.876H216.477" stroke="white" stroke-miterlimit="10" stroke-linecap="round"/>
<path d="M223.247 196.324C223.495 196.324 223.697 196.124 223.697 195.877C223.697 195.629 223.495 195.429 223.247 195.429C222.998 195.429 222.797 195.629 222.797 195.877C222.797 196.124 222.998 196.324 223.247 196.324Z" stroke="white" stroke-miterlimit="10" stroke-linecap="round"/>
<path d="M229.149 196.324C229.397 196.324 229.599 196.124 229.599 195.877C229.599 195.629 229.397 195.429 229.149 195.429C228.901 195.429 228.699 195.629 228.699 195.877C228.699 196.124 228.901 196.324 229.149 196.324Z" stroke="white" stroke-miterlimit="10" stroke-linecap="round"/>
<path d="M232.107 177.124H200.151C199.146 177.124 198.332 177.935 198.332 178.935V185.147C198.332 186.147 199.146 186.958 200.151 186.958H232.107C233.112 186.958 233.926 186.147 233.926 185.147V178.935C233.926 177.935 233.112 177.124 232.107 177.124Z" stroke="white" stroke-miterlimit="10"/>
<path d="M201.77 182.051H216.477" stroke="white" stroke-miterlimit="10" stroke-linecap="round"/>
<path d="M223.247 182.498C223.495 182.498 223.697 182.298 223.697 182.05C223.697 181.803 223.495 181.603 223.247 181.603C222.998 181.603 222.797 181.803 222.797 182.05C222.797 182.298 222.998 182.498 223.247 182.498Z" stroke="white" stroke-miterlimit="10" stroke-linecap="round"/>
<path d="M229.149 182.498C229.397 182.498 229.599 182.298 229.599 182.05C229.599 181.803 229.397 181.603 229.149 181.603C228.901 181.603 228.699 181.803 228.699 182.05C228.699 182.298 228.901 182.498 229.149 182.498Z" stroke="white" stroke-miterlimit="10" stroke-linecap="round"/>
<path d="M202.438 186.958V190.95" stroke="white" stroke-miterlimit="10" stroke-linecap="round"/>
<path d="M230.129 186.958V190.95" stroke="white" stroke-miterlimit="10" stroke-linecap="round"/>
<path d="M202.438 200.783V204.775" stroke="white" stroke-miterlimit="10" stroke-linecap="round"/>
<path d="M230.129 200.783V204.775" stroke="white" stroke-miterlimit="10" stroke-linecap="round"/>
<path d="M197.473 222.787H213.118" stroke="white" stroke-miterlimit="10" stroke-linecap="round"/>
<path d="M219.199 222.787H234.825" stroke="white" stroke-miterlimit="10" stroke-linecap="round"/>
<path d="M216.148 219.749V214.608" stroke="white" stroke-miterlimit="10" stroke-linecap="round"/>
<path d="M302.628 180.221C298.247 180.221 294.707 176.696 294.707 172.334C294.707 167.972 298.188 164.603 302.471 164.603C304.74 164.603 306.774 165.577 308.182 167.096C308.182 160.709 313.697 155.587 320.268 156.211C325.255 156.678 329.089 160.631 329.988 165.402C329.988 163.007 331.944 161.04 334.369 161.04C336.794 161.04 338.75 162.987 338.75 165.402V165.538C339.786 164.973 340.96 164.642 342.211 164.642C346.181 164.642 349.389 167.836 349.389 171.789V172.295C349.389 176.657 345.849 180.182 341.468 180.182" stroke="white" stroke-linecap="round" stroke-linejoin="round"/>
<path d="M318.215 181.35V187.99L312.348 192.215V200.043" stroke="white" stroke-linecap="round" stroke-linejoin="round"/>
<path d="M325.84 181.35V187.99L331.707 192.215V201.29" stroke="white" stroke-linecap="round" stroke-linejoin="round"/>
<path d="M335.195 181.35V187.99L344.25 194.533" stroke="white" stroke-linecap="round" stroke-linejoin="round"/>
<path d="M308.442 181.35V187.99L299.367 194.533" stroke="white" stroke-linecap="round" stroke-linejoin="round"/>
<path d="M296.508 199.596C298.095 199.596 299.383 198.315 299.383 196.734C299.383 195.153 298.095 193.871 296.508 193.871C294.92 193.871 293.633 195.153 293.633 196.734C293.633 198.315 294.92 199.596 296.508 199.596Z" stroke="white" stroke-linecap="round" stroke-linejoin="round"/>
<path d="M347.121 199.596C348.709 199.596 349.996 198.315 349.996 196.734C349.996 195.153 348.709 193.871 347.121 193.871C345.533 193.871 344.246 195.153 344.246 196.734C344.246 198.315 345.533 199.596 347.121 199.596Z" stroke="white" stroke-linecap="round" stroke-linejoin="round"/>
<path d="M312.351 207.015C313.939 207.015 315.226 205.733 315.226 204.153C315.226 202.572 313.939 201.29 312.351 201.29C310.764 201.29 309.477 202.572 309.477 204.153C309.477 205.733 310.764 207.015 312.351 207.015Z" stroke="white" stroke-linecap="round" stroke-linejoin="round"/>
<path d="M331.711 207.015C333.299 207.015 334.586 205.733 334.586 204.153C334.586 202.572 333.299 201.29 331.711 201.29C330.123 201.29 328.836 202.572 328.836 204.153C328.836 205.733 330.123 207.015 331.711 207.015Z" stroke="white" stroke-linecap="round" stroke-linejoin="round"/>
<path d="M302.629 180.221H341.469" stroke="white" stroke-linecap="round" stroke-linejoin="round"/>
<path d="M155.986 479.089L144.154 467.328H151.722L142.1 454.826H147.478L137.739 440.903L128 454.826H133.378L123.736 467.328H131.324L119.492 479.089H155.986Z" stroke="white" stroke-linecap="round" stroke-linejoin="round"/>
<path d="M156.417 472.06H168.777L158.724 462.051H165.159L156.984 451.438H161.56L153.268 439.599L148.535 446.356" stroke="white" stroke-linecap="round" stroke-linejoin="round"/>
<path d="M199.504 281.673H315.028H314.793C331.065 281.673 344.266 268.529 344.266 252.328C344.266 236.127 331.065 222.982 314.793 222.982H238.716" stroke="white" stroke-linecap="round" stroke-linejoin="round"/>
<path d="M194.457 281.674H162.188" stroke="white" stroke-linecap="round" stroke-linejoin="round"/>
<path d="M133.007 302.645C134.108 302.645 135.001 301.756 135.001 300.659C135.001 299.562 134.108 298.673 133.007 298.673C131.905 298.673 131.012 299.562 131.012 300.659C131.012 301.756 131.905 302.645 133.007 302.645Z" stroke="white" stroke-miterlimit="10"/>
<path d="M119.687 306.209C119.12 306.112 118.533 306.054 117.947 306.054C112.51 306.054 108.109 310.435 108.109 315.849C108.109 321.262 112.51 325.643 117.947 325.643C123.384 325.643 127.784 321.262 127.784 315.849C127.784 315.186 127.725 314.544 127.588 313.921" stroke="white" stroke-miterlimit="10" stroke-linecap="round"/>
<path d="M111.984 315.849C111.984 319.12 114.644 321.788 117.949 321.788" stroke="white" stroke-miterlimit="10" stroke-linecap="round"/>
<path d="M139.091 302.334C139.248 301.789 139.345 301.224 139.345 300.64C139.345 300.056 139.228 299.491 139.091 298.946L147.755 290.319C148.928 289.151 148.928 287.262 147.755 286.113L147.638 285.996C146.464 284.828 144.567 284.828 143.413 285.996L134.749 294.623C134.202 294.467 133.635 294.37 133.028 294.37C132.422 294.37 131.875 294.467 131.327 294.623L122.702 286.035C121.529 284.867 119.632 284.867 118.478 286.035L118.361 286.152C117.187 287.321 117.187 289.209 118.361 290.358L126.985 298.946C126.829 299.491 126.711 300.056 126.711 300.659C126.711 301.263 126.829 301.808 126.966 302.354L118.361 310.922C117.187 312.09 117.187 313.979 118.361 315.128L118.478 315.245C119.651 316.413 121.548 316.413 122.702 315.245L131.307 306.676C131.855 306.832 132.422 306.93 133.009 306.93C133.596 306.93 134.182 306.813 134.73 306.657L143.374 315.264C144.548 316.432 146.445 316.432 147.599 315.264L147.716 315.147C148.889 313.979 148.889 312.09 147.716 310.941L139.072 302.334H139.091Z" stroke="white" stroke-miterlimit="10"/>
<path d="M146.366 295.071C146.933 295.168 147.52 295.226 148.107 295.226C153.544 295.226 157.944 290.845 157.944 285.432C157.944 280.018 153.544 275.637 148.107 275.637C142.67 275.637 138.27 280.018 138.27 285.432C138.27 286.094 138.328 286.736 138.465 287.359" stroke="white" stroke-miterlimit="10" stroke-linecap="round"/>
<path d="M154.07 285.432C154.07 282.161 151.411 279.493 148.105 279.493" stroke="white" stroke-miterlimit="10" stroke-linecap="round"/>
<path d="M138.621 313.921C138.524 314.486 138.465 315.07 138.465 315.654C138.465 321.068 142.865 325.449 148.302 325.449C153.739 325.449 158.139 321.068 158.139 315.654C158.139 310.241 153.739 305.859 148.302 305.859C147.637 305.859 146.992 305.918 146.366 306.054" stroke="white" stroke-miterlimit="10" stroke-linecap="round"/>
<path d="M148.301 321.593C151.586 321.593 154.266 318.945 154.266 315.654" stroke="white" stroke-miterlimit="10" stroke-linecap="round"/>
<path d="M127.432 287.36C127.53 286.795 127.589 286.211 127.589 285.627C127.589 280.213 123.188 275.832 117.751 275.832C112.314 275.832 107.914 280.213 107.914 285.627C107.914 291.04 112.314 295.422 117.751 295.422C118.416 295.422 119.062 295.363 119.687 295.227" stroke="white" stroke-miterlimit="10" stroke-linecap="round"/>
<path d="M117.754 279.688C114.468 279.688 111.789 282.336 111.789 285.627" stroke="white" stroke-miterlimit="10" stroke-linecap="round"/>
<path d="M117.191 177.611C117.191 177.611 117.113 177.611 117.074 177.611C119.577 179.909 121.181 183.18 121.181 186.841C121.181 193.793 115.509 199.44 108.527 199.44C107.569 199.44 106.63 199.304 105.73 199.109C108.214 202.751 112.419 205.146 117.171 205.146C124.818 205.146 131.018 198.973 131.018 191.359C131.018 183.745 124.818 177.572 117.171 177.572L117.191 177.611Z" stroke="white" stroke-linejoin="round"/>
<path d="M153.19 225.923C152.252 225.923 151.372 226.176 150.589 226.604C150.042 224.54 148.164 223.002 145.935 223.002C143.47 223.002 141.437 224.852 141.163 227.247C141.143 227.247 141.124 227.247 141.104 227.247C138.425 227.247 136.273 229.408 136.273 232.057C136.273 234.705 138.444 236.867 141.104 236.867H153.21C156.241 236.867 158.706 234.413 158.706 231.395C158.706 228.376 156.241 225.923 153.21 225.923H153.19Z" stroke="white" stroke-linejoin="round"/>
<path d="M38.1946 478.446C36.9038 478.446 35.7108 478.797 34.6547 479.361C33.9115 476.557 31.3691 474.474 28.3182 474.474C24.9544 474.474 22.2164 476.986 21.8252 480.238C21.8057 480.238 21.7665 480.238 21.747 480.238C18.1094 480.238 15.1758 483.158 15.1758 486.78C15.1758 490.402 18.1094 493.323 21.747 493.323H38.1946C42.3211 493.323 45.6654 489.993 45.6654 485.885C45.6654 481.776 42.3211 478.446 38.1946 478.446Z" stroke="white" stroke-linejoin="round"/>
<path d="M307.314 231.453H292.176C290.308 231.453 288.793 232.961 288.793 234.822V274.897C288.793 276.757 290.308 278.266 292.176 278.266H307.314C309.182 278.266 310.697 276.757 310.697 274.897V234.822C310.697 232.961 309.182 231.453 307.314 231.453Z" stroke="white" stroke-linecap="round" stroke-linejoin="round"/>
<path d="M284.71 236.224H260.478C258.053 236.224 256.078 238.19 256.078 240.605V266.231C256.078 268.646 258.053 270.613 260.478 270.613H284.71" stroke="white" stroke-linecap="round" stroke-linejoin="round"/>
<path d="M256.098 262.979H284.71" stroke="white" stroke-linecap="round" stroke-linejoin="round"/>
<path d="M276.712 267.458C277.122 267.458 277.455 267.127 277.455 266.718C277.455 266.31 277.122 265.979 276.712 265.979C276.301 265.979 275.969 266.31 275.969 266.718C275.969 267.127 276.301 267.458 276.712 267.458Z" stroke="white" stroke-linecap="round" stroke-linejoin="round"/>
<path d="M296.953 237.509H302.703" stroke="white" stroke-linecap="round" stroke-linejoin="round"/>
<path d="M293.996 253.905H305.417" stroke="white" stroke-linecap="round" stroke-linejoin="round"/>
<path d="M293.996 258.521H305.417" stroke="white" stroke-linecap="round" stroke-linejoin="round"/>
<path d="M299.827 268.744C300.95 268.744 301.861 267.837 301.861 266.719C301.861 265.6 300.95 264.693 299.827 264.693C298.704 264.693 297.793 265.6 297.793 266.719C297.793 267.837 298.704 268.744 299.827 268.744Z" stroke="white" stroke-linecap="round" stroke-linejoin="round"/>
<path d="M299.829 273.417C300.272 273.417 300.631 273.06 300.631 272.619C300.631 272.178 300.272 271.82 299.829 271.82C299.386 271.82 299.027 272.178 299.027 272.619C299.027 273.06 299.386 273.417 299.829 273.417Z" stroke="white" stroke-linecap="round" stroke-linejoin="round"/>
<path d="M273.213 270.612L271.453 278.265" stroke="white" stroke-linecap="round" stroke-linejoin="round"/>
<path d="M280.25 270.612L282.01 278.265" stroke="white" stroke-linecap="round" stroke-linejoin="round"/>
<path d="M296.406 359.623H324.49C328.949 359.623 332.567 356.021 332.567 351.581" stroke="white" stroke-linecap="round" stroke-linejoin="round"/>
<path d="M189.51 342.779C191.918 342.779 193.871 340.834 193.871 338.436C193.871 336.038 191.918 334.094 189.51 334.094C187.101 334.094 185.148 336.038 185.148 338.436C185.148 340.834 187.101 342.779 189.51 342.779Z" stroke="white" stroke-linecap="round" stroke-linejoin="round"/>
<path d="M189.51 363.887C191.918 363.887 193.871 361.943 193.871 359.545C193.871 357.146 191.918 355.202 189.51 355.202C187.101 355.202 185.148 357.146 185.148 359.545C185.148 361.943 187.101 363.887 189.51 363.887Z" stroke="white" stroke-linecap="round" stroke-linejoin="round"/>
<path d="M267.228 363.887C269.637 363.887 271.59 361.943 271.59 359.545C271.59 357.146 269.637 355.202 267.228 355.202C264.82 355.202 262.867 357.146 262.867 359.545C262.867 361.943 264.82 363.887 267.228 363.887Z" stroke="white" stroke-linecap="round" stroke-linejoin="round"/>
<path d="M189.51 384.977C191.918 384.977 193.871 383.033 193.871 380.634C193.871 378.236 191.918 376.292 189.51 376.292C187.101 376.292 185.148 378.236 185.148 380.634C185.148 383.033 187.101 384.977 189.51 384.977Z" stroke="white" stroke-linecap="round" stroke-linejoin="round"/>
<path d="M215.537 331.855C217.946 331.855 219.898 329.911 219.898 327.512C219.898 325.114 217.946 323.17 215.537 323.17C213.128 323.17 211.176 325.114 211.176 327.512C211.176 329.911 213.128 331.855 215.537 331.855Z" stroke="white" stroke-linecap="round" stroke-linejoin="round"/>
<path d="M215.537 352.944C217.946 352.944 219.898 350.999 219.898 348.601C219.898 346.203 217.946 344.259 215.537 344.259C213.128 344.259 211.176 346.203 211.176 348.601C211.176 350.999 213.128 352.944 215.537 352.944Z" stroke="white" stroke-linecap="round" stroke-linejoin="round"/>
<path d="M215.537 374.052C217.946 374.052 219.898 372.108 219.898 369.71C219.898 367.311 217.946 365.367 215.537 365.367C213.128 365.367 211.176 367.311 211.176 369.71C211.176 372.108 213.128 374.052 215.537 374.052Z" stroke="white" stroke-linecap="round" stroke-linejoin="round"/>
<path d="M215.537 395.141C217.946 395.141 219.898 393.197 219.898 390.798C219.898 388.4 217.946 386.456 215.537 386.456C213.128 386.456 211.176 388.4 211.176 390.798C211.176 393.197 213.128 395.141 215.537 395.141Z" stroke="white" stroke-linecap="round" stroke-linejoin="round"/>
<path d="M241.705 331.855C244.114 331.855 246.066 329.911 246.066 327.512C246.066 325.114 244.114 323.17 241.705 323.17C239.296 323.17 237.344 325.114 237.344 327.512C237.344 329.911 239.296 331.855 241.705 331.855Z" stroke="white" stroke-linecap="round" stroke-linejoin="round"/>
<path d="M241.705 352.944C244.114 352.944 246.066 350.999 246.066 348.601C246.066 346.203 244.114 344.259 241.705 344.259C239.296 344.259 237.344 346.203 237.344 348.601C237.344 350.999 239.296 352.944 241.705 352.944Z" stroke="white" stroke-linecap="round" stroke-linejoin="round"/>
<path d="M241.705 374.052C244.114 374.052 246.066 372.108 246.066 369.71C246.066 367.311 244.114 365.367 241.705 365.367C239.296 365.367 237.344 367.311 237.344 369.71C237.344 372.108 239.296 374.052 241.705 374.052Z" stroke="white" stroke-linecap="round" stroke-linejoin="round"/>
<path d="M241.705 395.141C244.114 395.141 246.066 393.197 246.066 390.798C246.066 388.4 244.114 386.456 241.705 386.456C239.296 386.456 237.344 388.4 237.344 390.798C237.344 393.197 239.296 395.141 241.705 395.141Z" stroke="white" stroke-linecap="round" stroke-linejoin="round"/>
<path d="M193.895 338.437L211.164 327.513" stroke="white" stroke-linecap="round" stroke-linejoin="round"/>
<path d="M219.902 327.513H237.347" stroke="white" stroke-linecap="round" stroke-linejoin="round"/>
<path d="M244.703 330.687L267.233 355.183" stroke="white" stroke-linecap="round" stroke-linejoin="round"/>
<path d="M193.895 338.437L211.164 348.601" stroke="white" stroke-linecap="round" stroke-linejoin="round"/>
<path d="M193.895 359.545L211.164 348.602" stroke="white" stroke-linecap="round" stroke-linejoin="round"/>
<path d="M211.164 369.71L193.895 359.545" stroke="white" stroke-linecap="round" stroke-linejoin="round"/>
<path d="M193.895 380.634L211.164 369.71" stroke="white" stroke-linecap="round" stroke-linejoin="round"/>
<path d="M211.164 390.799L193.895 380.634" stroke="white" stroke-linecap="round" stroke-linejoin="round"/>
<path d="M219.902 390.799H237.347" stroke="white" stroke-linecap="round" stroke-linejoin="round"/>
<path d="M244.957 387.917L267.233 363.888" stroke="white" stroke-linecap="round" stroke-linejoin="round"/>
<path d="M246.09 369.71L262.85 359.545" stroke="white" stroke-linecap="round" stroke-linejoin="round"/>
<path d="M246.09 348.602L262.85 359.545" stroke="white" stroke-linecap="round" stroke-linejoin="round"/>
<path d="M218.922 367.003L238.323 351.308" stroke="white" stroke-linecap="round" stroke-linejoin="round"/>
<path d="M238.323 367.003L218.922 351.308" stroke="white" stroke-linecap="round" stroke-linejoin="round"/>
<path d="M167.059 338.437H179.81" stroke="white" stroke-linecap="round" stroke-linejoin="round"/>
<path d="M175.996 334.64L179.81 338.437L175.996 342.234" stroke="white" stroke-linecap="round" stroke-linejoin="round"/>
<path d="M167.059 359.545H179.81" stroke="white" stroke-linecap="round" stroke-linejoin="round"/>
<path d="M175.996 355.748L179.81 359.545L175.996 363.323" stroke="white" stroke-linecap="round" stroke-linejoin="round"/>
<path d="M277.5 359.545H290.271" stroke="white" stroke-linecap="round" stroke-linejoin="round"/>
<path d="M286.457 355.747L290.271 359.544L286.457 363.322" stroke="white" stroke-linecap="round" stroke-linejoin="round"/>
<path d="M167.059 380.634H179.81" stroke="white" stroke-linecap="round" stroke-linejoin="round"/>
<path d="M175.996 376.837L179.81 380.634L175.996 384.431" stroke="white" stroke-linecap="round" stroke-linejoin="round"/>
<path d="M370.684 282.842C373.637 282.842 376.042 285.237 376.042 288.177C376.042 291.118 373.637 293.513 370.684 293.513" stroke="white" stroke-linecap="round" stroke-linejoin="round"/>
<path d="M370.684 261.5C373.637 261.5 376.042 263.895 376.042 266.836C376.042 269.776 373.637 272.171 370.684 272.171" stroke="white" stroke-linecap="round" stroke-linejoin="round"/>
<path d="M370.687 282.842C367.734 282.842 365.328 280.447 365.328 277.506C365.328 274.566 367.734 272.171 370.687 272.171" stroke="white" stroke-linecap="round" stroke-linejoin="round"/>
<path d="M370.687 261.5C367.734 261.5 365.328 259.105 365.328 256.164C365.328 253.224 367.734 250.829 370.687 250.829V232.446" stroke="white" stroke-linecap="round" stroke-linejoin="round"/>
<path d="M317.395 114.014C319.311 114.014 320.856 115.552 320.856 117.46C320.856 119.369 319.311 120.907 317.395 120.907" stroke="white" stroke-linecap="round" stroke-linejoin="round"/>
<path d="M317.395 100.207C319.311 100.207 320.856 101.745 320.856 103.654C320.856 105.562 319.311 107.1 317.395 107.1" stroke="white" stroke-linecap="round" stroke-linejoin="round"/>
<path d="M317.395 114.013C315.479 114.013 313.934 112.475 313.934 110.567C313.934 108.658 315.479 107.12 317.395 107.12" stroke="white" stroke-linecap="round" stroke-linejoin="round"/>
<path d="M317.395 100.207C315.479 100.207 313.934 98.6689 313.934 96.7606C313.934 94.8522 315.479 93.3139 317.395 93.3139V81.416" stroke="white" stroke-linecap="round" stroke-linejoin="round"/>
<path d="M337.246 303.152H310.531V350.218H344.893V310.883L337.246 303.152Z" stroke="white" stroke-linecap="round" stroke-linejoin="round"/>
<path d="M344.889 310.766H337.242V303.152L344.889 310.766Z" stroke="white" stroke-linecap="round" stroke-linejoin="round"/>
<path d="M348.315 345.097H354.436V305.742L346.789 298.031H320.074V300.757" stroke="white" stroke-linecap="round" stroke-linejoin="round"/>
<path d="M354.436 305.645H346.789V298.031L354.436 305.645Z" stroke="white" stroke-linecap="round" stroke-linejoin="round"/>
<path d="M323.445 330.765C328.003 330.765 331.698 327.086 331.698 322.548C331.698 318.009 328.003 314.33 323.445 314.33C318.886 314.33 315.191 318.009 315.191 322.548C315.191 327.086 318.886 330.765 323.445 330.765Z" stroke="white" stroke-linecap="round" stroke-linejoin="round"/>
<path d="M315.871 308.157H333.121" stroke="white" stroke-linecap="round" stroke-linejoin="round"/>
<path d="M335.43 317.388H340.475" stroke="white" stroke-linecap="round" stroke-linejoin="round"/>
<path d="M335.43 322.548H340.475" stroke="white" stroke-linecap="round" stroke-linejoin="round"/>
<path d="M335.43 326.695H340.475" stroke="white" stroke-linecap="round" stroke-linejoin="round"/>
<path d="M323.441 314.33V322.548L318.082 328.798" stroke="white" stroke-linecap="round" stroke-linejoin="round"/>
<path d="M323.445 322.548H315.191" stroke="white" stroke-linecap="round" stroke-linejoin="round"/>
<path d="M316.143 346.246C317.158 346.246 317.981 345.426 317.981 344.415C317.981 343.404 317.158 342.585 316.143 342.585C315.128 342.585 314.305 343.404 314.305 344.415C314.305 345.426 315.128 346.246 316.143 346.246Z" stroke="white" stroke-linecap="round" stroke-linejoin="round"/>
<path d="M324.006 339.918C325.022 339.918 325.845 339.098 325.845 338.087C325.845 337.076 325.022 336.257 324.006 336.257C322.991 336.257 322.168 337.076 322.168 338.087C322.168 339.098 322.991 339.918 324.006 339.918Z" stroke="white" stroke-linecap="round" stroke-linejoin="round"/>
<path d="M331.694 345.058C332.709 345.058 333.532 344.239 333.532 343.228C333.532 342.217 332.709 341.397 331.694 341.397C330.679 341.397 329.855 342.217 329.855 343.228C329.855 344.239 330.679 345.058 331.694 345.058Z" stroke="white" stroke-linecap="round" stroke-linejoin="round"/>
<path d="M339.081 340.481C340.096 340.481 340.919 339.662 340.919 338.651C340.919 337.64 340.096 336.82 339.081 336.82C338.065 336.82 337.242 337.64 337.242 338.651C337.242 339.662 338.065 340.481 339.081 340.481Z" stroke="white" stroke-linecap="round" stroke-linejoin="round"/>
<path d="M317.551 343.228L322.46 339.061" stroke="white" stroke-linecap="round" stroke-linejoin="round"/>
<path d="M325.57 339.061L330.108 342.293" stroke="white" stroke-linecap="round" stroke-linejoin="round"/>
<path d="M333.395 342.585L337.775 339.917" stroke="white" stroke-linecap="round" stroke-linejoin="round"/>
<path d="M304.898 42.3146L301.574 43.3466C300.811 43.5803 300.224 44.2034 300.029 44.9823L298.914 49.6363L297.799 44.9629C297.623 44.2034 297.036 43.5803 296.293 43.3271L293.164 42.3146L296.332 41.2825C297.076 41.0488 297.643 40.4452 297.838 39.7052L298.933 35.5186L300.029 39.6857C300.224 40.4452 300.811 41.0488 301.554 41.2825L304.898 42.3146Z" stroke="white" stroke-linejoin="round"/>
<path d="M391.441 216.927L388.117 217.959C387.354 218.193 386.767 218.816 386.572 219.595L385.457 224.249L384.342 219.575C384.166 218.816 383.579 218.193 382.836 217.939L379.707 216.927L382.875 215.895C383.618 215.661 384.186 215.057 384.381 214.317L385.476 210.131L386.572 214.298C386.767 215.057 387.354 215.661 388.097 215.895L391.441 216.927Z" stroke="white" stroke-linecap="round" stroke-linejoin="round"/>
<path d="M179.062 507.655L175.738 508.687C174.975 508.921 174.388 509.544 174.193 510.323L173.078 514.977L171.963 510.304C171.787 509.544 171.2 508.921 170.457 508.668L167.328 507.655L170.496 506.623C171.24 506.39 171.807 505.786 172.002 505.046L173.097 500.859L174.193 505.027C174.388 505.786 174.975 506.39 175.718 506.623L179.062 507.655Z" stroke="white" stroke-linecap="round" stroke-linejoin="round"/>
<path d="M165.12 90.5094L160.309 92.0088C159.194 92.3593 158.353 93.255 158.08 94.3844L156.456 101.141L154.833 94.3455C154.559 93.2355 153.738 92.3398 152.643 91.9698L148.105 90.4899L152.701 88.9905C153.777 88.64 154.598 87.7832 154.872 86.6927L156.476 80.6172L158.06 86.6732C158.353 87.7637 159.194 88.64 160.27 88.9905L165.14 90.4899L165.12 90.5094Z" stroke="white" stroke-linejoin="round"/>
<path d="M312.015 386.145C312.015 391.578 308.006 395.979 303.078 395.979C298.149 395.979 294.14 391.578 294.14 386.145C292.83 386.145 291.754 385.074 291.754 383.769C291.754 382.465 292.83 381.394 294.14 381.394H294.707V375.941C294.707 374.851 295.587 373.975 296.682 373.975H309.473C310.568 373.975 311.448 374.851 311.448 375.941V381.394H312.015C313.325 381.394 314.401 382.465 314.401 383.769C314.401 385.074 313.325 386.145 312.015 386.145Z" stroke="white" stroke-linecap="round" stroke-linejoin="round"/>
<path d="M313.579 381.998V375.494C313.579 370.626 309.413 366.692 304.289 366.692H301.844C296.72 366.692 292.555 370.645 292.555 375.494V381.998" stroke="white" stroke-linecap="round" stroke-linejoin="round"/>
<path d="M294.765 400.186L283.285 404.216C280.528 405.19 278.474 407.527 277.868 410.37L277.418 412.531" stroke="white" stroke-linecap="round" stroke-linejoin="round"/>
<path d="M312.23 400.186L323.711 404.216C326.468 405.19 328.522 407.527 329.128 410.37L329.578 412.531" stroke="white" stroke-linecap="round" stroke-linejoin="round"/>
<path d="M306.281 414.926L303.25 406.358L306.281 403.69L303.25 400.672L300.238 403.69L303.25 406.358L300.238 414.926" stroke="white" stroke-linecap="round" stroke-linejoin="round"/>
<path d="M332.567 351.581C332.567 356.021 336.185 359.623 340.644 359.623H340.39H360.142H358.891C374.693 359.623 387.503 372.378 387.503 388.112C387.503 403.846 374.693 416.601 358.891 416.601H200.536C193.476 416.601 187.766 422.287 187.766 429.316V448.711C187.766 453.969 192.049 458.233 197.329 458.233C202.61 458.233 206.893 453.969 206.893 448.711V441.915" stroke="white" stroke-linejoin="round"/>
<path d="M214.25 430.68L209.81 437.982L214.25 445.304L206.916 440.864L199.562 445.304L204.022 437.982L199.562 430.68L206.916 435.1L214.25 430.68Z" stroke="white" stroke-linejoin="round"/>
<path d="M184.288 420.437C181.96 418.061 178.733 416.601 175.154 416.601H99.9766C80.4195 416.601 64.5586 432.393 64.5586 451.866C64.5586 471.339 80.4195 487.131 99.9766 487.131H129.391C133.85 487.131 137.468 483.528 137.468 479.089" stroke="white" stroke-linecap="round" stroke-linejoin="round"/>
<path d="M212.294 262.064V267.594C212.294 270.652 209.811 273.125 206.74 273.125H187.339C184.269 273.125 181.785 270.652 181.785 267.594V248.277C181.785 245.22 184.269 242.747 187.339 242.747H206.74C209.811 242.747 212.294 245.22 212.294 248.277V257.488" stroke="white" stroke-linecap="round" stroke-linejoin="round"/>
<path d="M197.039 242.729V239.866" stroke="white" stroke-linecap="round" stroke-linejoin="round"/>
<path d="M212.742 250.459H218.629" stroke="white" stroke-linecap="round" stroke-linejoin="round"/>
<path d="M197.039 273.125V279.162" stroke="white" stroke-linecap="round" stroke-linejoin="round"/>
<path d="M197.038 283.875C198.345 283.875 199.405 282.82 199.405 281.518C199.405 280.217 198.345 279.162 197.038 279.162C195.731 279.162 194.672 280.217 194.672 281.518C194.672 282.82 195.731 283.875 197.038 283.875Z" stroke="white" stroke-linecap="round" stroke-linejoin="round"/>
<path d="M197.038 236.555C198.345 236.555 199.405 235.5 199.405 234.199C199.405 232.898 198.345 231.843 197.038 231.843C195.731 231.843 194.672 232.898 194.672 234.199C194.672 235.5 195.731 236.555 197.038 236.555Z" stroke="white" stroke-linecap="round" stroke-linejoin="round"/>
<path d="M221.019 252.815C222.326 252.815 223.385 251.76 223.385 250.459C223.385 249.157 222.326 248.103 221.019 248.103C219.712 248.103 218.652 249.157 218.652 250.459C218.652 251.76 219.712 252.815 221.019 252.815Z" stroke="white" stroke-linecap="round" stroke-linejoin="round"/>
<path d="M212.742 265.083H214.972" stroke="white" stroke-linecap="round" stroke-linejoin="round"/>
<path d="M179.262 250.459H181.785" stroke="white" stroke-linecap="round" stroke-linejoin="round"/>
<path d="M189.863 235.504V239.34" stroke="white" stroke-linecap="round" stroke-linejoin="round"/>
<path d="M204.586 238.541V242.377" stroke="white" stroke-linecap="round" stroke-linejoin="round"/>
<path d="M175.684 265.083H181.785" stroke="white" stroke-linecap="round" stroke-linejoin="round"/>
<path d="M216.715 257.937H220.568" stroke="white" stroke-linecap="round" stroke-linejoin="round"/>
<path d="M174.746 257.937H181.787" stroke="white" stroke-linecap="round" stroke-linejoin="round"/>
<path d="M221.019 267.439C222.326 267.439 223.385 266.384 223.385 265.083C223.385 263.781 222.326 262.727 221.019 262.727C219.712 262.727 218.652 263.781 218.652 265.083C218.652 266.384 219.712 267.439 221.019 267.439Z" stroke="white" stroke-linecap="round" stroke-linejoin="round"/>
<path d="M173.316 252.815C174.623 252.815 175.682 251.76 175.682 250.459C175.682 249.157 174.623 248.103 173.316 248.103C172.009 248.103 170.949 249.157 170.949 250.459C170.949 251.76 172.009 252.815 173.316 252.815Z" stroke="white" stroke-linecap="round" stroke-linejoin="round"/>
<path d="M173.316 267.439C174.623 267.439 175.682 266.384 175.682 265.083C175.682 263.781 174.623 262.727 173.316 262.727C172.009 262.727 170.949 263.781 170.949 265.083C170.949 266.384 172.009 267.439 173.316 267.439Z" stroke="white" stroke-linecap="round" stroke-linejoin="round"/>
<path d="M189.863 264.129L194.303 251.511L198.82 264.129" stroke="white" stroke-linecap="round" stroke-linejoin="round"/>
<path d="M202.887 251.511V264.129" stroke="white" stroke-linecap="round" stroke-linejoin="round"/>
<path d="M191.797 258.598H196.843" stroke="white" stroke-linecap="round" stroke-linejoin="round"/>
<path d="M111.003 553.786H79.0469V581.866H111.003V553.786Z" stroke="white" stroke-linecap="round" stroke-linejoin="round"/>
<path d="M84.7812 563.892H91.8218V558.4H88.3015" stroke="white" stroke-linecap="round" stroke-linejoin="round"/>
<path d="M98 563.893H105.06V558.401H101.52" stroke="white" stroke-linecap="round" stroke-linejoin="round"/>
<path d="M84.7812 574.856H91.8218V569.364H88.3015" stroke="white" stroke-linecap="round" stroke-linejoin="round"/>
<path d="M98 574.856H105.06V569.364H101.52" stroke="white" stroke-linecap="round" stroke-linejoin="round"/>
<path d="M107.03 538.656H81.4688V547.224H107.03V538.656Z" stroke="white" stroke-linecap="round" stroke-linejoin="round"/>
<path d="M112.547 524.597H53.6992V517.139H105.056L112.547 524.597Z" stroke="white" stroke-linecap="round" stroke-linejoin="round"/>
<path d="M68.2342 524.597H56.5586V574.856H68.2342V524.597Z" stroke="white" stroke-linecap="round" stroke-linejoin="round"/>
<path d="M72.4367 574.855H52.3711V581.885H72.4367V574.855Z" stroke="white" stroke-linecap="round" stroke-linejoin="round"/>
<path d="M60.0938 517.138V507.928" stroke="white" stroke-linecap="round" stroke-linejoin="round"/>
<path d="M93.1454 517.138L60.0938 507.928" stroke="white" stroke-linecap="round" stroke-linejoin="round"/>
<path d="M53.7011 514.062H40.4805V524.596H47.0908" stroke="white" stroke-linecap="round" stroke-linejoin="round"/>
<path d="M60.0972 507.928L48.6367 514.062" stroke="white" stroke-linecap="round" stroke-linejoin="round"/>
<path d="M56.5586 524.597L68.2538 534.041" stroke="white" stroke-linecap="round" stroke-linejoin="round"/>
<path d="M56.5586 542.921L68.2538 534.041" stroke="white" stroke-linecap="round" stroke-linejoin="round"/>
<path d="M68.2538 553.786L56.5586 542.92" stroke="white" stroke-linecap="round" stroke-linejoin="round"/>
<path d="M56.5586 567.826L68.2538 553.786" stroke="white" stroke-linecap="round" stroke-linejoin="round"/>
<path d="M94.2447 524.597V532.951L89.3945 538.481H97.9997" stroke="white" stroke-linecap="round" stroke-linejoin="round"/>
<path d="M94.2461 532.95L99.9763 538.656" stroke="white" stroke-linecap="round" stroke-linejoin="round"/>
<path d="M111.004 561.147H118.044V581.886" stroke="white" stroke-linecap="round" stroke-linejoin="round"/>
<path d="M127.903 382.27L121.84 408.577H138.287L133.75 382.27H127.903Z" stroke="white" stroke-linecap="round" stroke-linejoin="round"/>
<path d="M125.008 394.849L138.541 408.324" stroke="white" stroke-linecap="round" stroke-linejoin="round"/>
<path d="M121.84 408.577L135.53 394.946" stroke="white" stroke-linecap="round" stroke-linejoin="round"/>
<path d="M135.472 392.239L126.945 386.456" stroke="white" stroke-linecap="round" stroke-linejoin="round"/>
<path d="M135.493 376.681H125.969V382.289H135.493V376.681Z" stroke="white" stroke-linecap="round" stroke-linejoin="round"/>
<path d="M122.796 375.804L114.406 373.273L115.873 368.463L148.69 378.316L147.243 383.145L139.146 380.711" stroke="white" stroke-linecap="round" stroke-linejoin="round"/>
<path d="M141.318 408.577H119.355V414.185H141.318V408.577Z" stroke="white" stroke-linecap="round" stroke-linejoin="round"/>
<path d="M149.395 375.162L148.691 378.317C148.691 378.317 147.4 382.503 147.224 383.146C147.048 383.788 148.691 391.87 148.691 391.87L156.044 380.42C156.592 379.563 156.455 378.433 155.692 377.732L151.937 374.344C151.057 373.546 149.649 373.994 149.395 375.143V375.162Z" stroke="white" stroke-linecap="round" stroke-linejoin="round"/>
<path d="M116.532 365.823L110.746 363.895L107.549 373.404L113.335 375.333L116.532 365.823Z" stroke="white" stroke-linecap="round" stroke-linejoin="round"/>
<path d="M108.057 399.788L103.216 404.608C102.476 405.345 102.476 406.541 103.216 407.279L105.125 409.179C105.866 409.917 107.067 409.917 107.808 409.179L112.648 404.36C113.389 403.622 113.389 402.426 112.648 401.689L110.739 399.788C109.999 399.051 108.797 399.051 108.057 399.788Z" stroke="white" stroke-linecap="round" stroke-linejoin="round"/>
<path d="M108.637 408.344L110.475 414.166H102.477L104.315 408.344" stroke="white" stroke-linecap="round" stroke-linejoin="round"/>
<path d="M109.504 399.698V373.955" stroke="white" stroke-linecap="round" stroke-linejoin="round"/>
<path d="M148.695 391.87V402.541" stroke="white" stroke-linecap="round" stroke-linejoin="round"/>
<path d="M148.694 406.397C149.763 406.397 150.63 405.534 150.63 404.469C150.63 403.404 149.763 402.541 148.694 402.541C147.625 402.541 146.758 403.404 146.758 404.469C146.758 405.534 147.625 406.397 148.694 406.397Z" stroke="white" stroke-linecap="round" stroke-linejoin="round"/>
<path d="M148.695 406.416V414.166" stroke="white" stroke-linecap="round" stroke-linejoin="round"/>
<path d="M271.866 474.979H243.978C241.958 474.979 240.32 476.61 240.32 478.621V483.509C240.32 485.52 241.958 487.15 243.978 487.15H271.866C273.886 487.15 275.523 485.52 275.523 483.509V478.621C275.523 476.61 273.886 474.979 271.866 474.979Z" stroke="white" stroke-linejoin="round"/>
<path d="M272.769 459.889H243.922V468.982H272.769V459.889Z" stroke="white" stroke-linejoin="round"/>
<path d="M272.765 450.95H264.609V459.869H272.765V450.95Z" stroke="white" stroke-linejoin="round"/>
<path d="M261.187 450.95H264.61V459.888H255.477L261.187 450.95Z" stroke="white" stroke-linejoin="round"/>
<path d="M243.92 450.151C246.534 450.151 248.653 448.042 248.653 445.439C248.653 442.836 246.534 440.727 243.92 440.727C241.306 440.727 239.188 442.836 239.188 445.439C239.188 448.042 241.306 450.151 243.92 450.151Z" stroke="white" stroke-linejoin="round"/>
<path d="M299.284 436.949C301.897 436.949 304.016 434.839 304.016 432.237C304.016 429.634 301.897 427.524 299.284 427.524C296.67 427.524 294.551 429.634 294.551 432.237C294.551 434.839 296.67 436.949 299.284 436.949Z" stroke="white" stroke-linejoin="round"/>
<path d="M294.559 486.897C297.16 486.897 299.292 484.794 299.292 482.184V473.986H289.533V479.984C289.533 483.801 286.423 486.877 282.609 486.877H294.578L294.559 486.897Z" stroke="white" stroke-linejoin="round"/>
<path d="M247.717 479.342C246.759 479.342 245.996 480.101 245.996 481.055C245.996 482.01 246.759 482.769 247.717 482.769" stroke="white" stroke-linecap="round" stroke-linejoin="round"/>
<path d="M269.539 479.342C270.497 479.342 271.26 480.101 271.26 481.055C271.26 482.01 270.497 482.769 269.539 482.769" stroke="white" stroke-linecap="round" stroke-linejoin="round"/>
<path d="M243.922 459.888V450.151" stroke="white" stroke-linejoin="round"/>
<path d="M272.766 468.962L289.507 474.005" stroke="white" stroke-linejoin="round"/>
<path d="M299.289 474.006V436.93" stroke="white" stroke-linejoin="round"/>
<path d="M272.766 468.963L296.801 436.229" stroke="white" stroke-linejoin="round"/>
<path d="M248.422 443.999L294.557 433.425" stroke="white" stroke-linejoin="round"/>
<path d="M264.609 474.979V468.962" stroke="white" stroke-linejoin="round"/>
<path d="M251.746 474.979V468.962" stroke="white" stroke-linejoin="round"/>
<path d="M251.746 481.056H266.081" stroke="white" stroke-linecap="round" stroke-linejoin="round"/>
<path d="M259.016 293.747V281.674" stroke="white" stroke-linecap="round" stroke-linejoin="round"/>
<path d="M391.121 559.18V555.052C391.121 550.183 395.091 546.23 399.98 546.23H400.372V549.989C400.372 550.398 400.352 550.787 400.293 551.196" stroke="white" stroke-linecap="round" stroke-linejoin="round"/>
<path d="M397.966 552.189H400.352V558.323C400.352 562.082 397.282 565.139 393.507 565.139H391.121V559.005C391.121 555.247 394.192 552.189 397.966 552.189Z" stroke="white" stroke-linecap="round" stroke-linejoin="round"/>
<path d="M391.121 565.14H388.735C384.961 565.14 381.89 562.082 381.89 558.324V552.19H384.276C388.051 552.19 391.121 555.247 391.121 559.006V565.14Z" stroke="white" stroke-linecap="round" stroke-linejoin="round"/>
<path d="M391.122 559.181V555.053C391.122 550.184 387.152 546.231 382.262 546.231H381.871V549.99C381.871 550.399 381.891 550.788 381.949 551.197" stroke="white" stroke-linecap="round" stroke-linejoin="round"/>
<path d="M391.121 553.339V549.211C391.121 544.343 395.091 540.39 399.98 540.39H400.372V544.148C400.372 544.557 400.352 544.946 400.293 545.355" stroke="white" stroke-linecap="round" stroke-linejoin="round"/>
<path d="M391.122 553.339V549.211C391.122 544.343 387.152 540.39 382.262 540.39H381.871V544.148C381.871 544.557 381.891 544.946 381.949 545.355" stroke="white" stroke-linecap="round" stroke-linejoin="round"/>
<path d="M391.121 547.497V543.369C391.121 538.501 395.091 534.548 399.98 534.548H400.372V538.306C400.372 538.715 400.352 539.104 400.293 539.513" stroke="white" stroke-linecap="round" stroke-linejoin="round"/>
<path d="M391.122 547.497V543.369C391.122 538.501 387.152 534.548 382.262 534.548H381.871V538.306C381.871 538.715 381.891 539.104 381.949 539.513" stroke="white" stroke-linecap="round" stroke-linejoin="round"/>
<path d="M391.121 541.636V537.508C391.121 532.639 395.091 528.687 399.98 528.687H400.372V532.445C400.372 532.854 400.352 533.243 400.293 533.652" stroke="white" stroke-linecap="round" stroke-linejoin="round"/>
<path d="M391.122 541.636V537.508C391.122 532.639 387.152 528.687 382.262 528.687H381.871V532.445C381.871 532.854 381.891 533.243 381.949 533.652" stroke="white" stroke-linecap="round" stroke-linejoin="round"/>
<path d="M391.105 536.787V519.787" stroke="white" stroke-linecap="round" stroke-linejoin="round"/>
<path d="M381.871 528.686V524.967" stroke="white" stroke-linecap="round" stroke-linejoin="round"/>
<path d="M400.375 528.686V524.967" stroke="white" stroke-linecap="round" stroke-linejoin="round"/>
<path d="M391.121 575.149V564.556" stroke="white" stroke-linecap="round" stroke-linejoin="round"/>
<path d="M365.25 559.18V555.052C365.25 550.183 369.22 546.23 374.109 546.23H374.501V549.989C374.501 550.398 374.481 550.787 374.422 551.196" stroke="white" stroke-linecap="round" stroke-linejoin="round"/>
<path d="M372.095 552.189H374.481V558.323C374.481 562.082 371.411 565.139 367.636 565.139H365.25V559.005C365.25 555.247 368.32 552.189 372.095 552.189Z" stroke="white" stroke-linecap="round" stroke-linejoin="round"/>
<path d="M365.25 565.14H362.864C359.089 565.14 356.019 562.082 356.019 558.324V552.19H358.405C362.18 552.19 365.25 555.247 365.25 559.006V565.14Z" stroke="white" stroke-linecap="round" stroke-linejoin="round"/>
<path d="M365.251 559.181V555.053C365.251 550.184 361.28 546.231 356.391 546.231H356V549.99C356 550.399 356.02 550.788 356.078 551.197" stroke="white" stroke-linecap="round" stroke-linejoin="round"/>
<path d="M365.25 553.339V549.211C365.25 544.343 369.22 540.39 374.109 540.39H374.501V544.148C374.501 544.557 374.481 544.946 374.422 545.355" stroke="white" stroke-linecap="round" stroke-linejoin="round"/>
<path d="M365.251 553.339V549.211C365.251 544.343 361.28 540.39 356.391 540.39H356V544.148C356 544.557 356.02 544.946 356.078 545.355" stroke="white" stroke-linecap="round" stroke-linejoin="round"/>
<path d="M365.25 547.497V543.369C365.25 538.501 369.22 534.548 374.109 534.548H374.501V538.306C374.501 538.715 374.481 539.104 374.422 539.513" stroke="white" stroke-linecap="round" stroke-linejoin="round"/>
<path d="M365.251 547.497V543.369C365.251 538.501 361.28 534.548 356.391 534.548H356V538.306C356 538.715 356.02 539.104 356.078 539.513" stroke="white" stroke-linecap="round" stroke-linejoin="round"/>
<path d="M365.25 541.636V537.508C365.25 532.639 369.22 528.687 374.109 528.687H374.501V532.445C374.501 532.854 374.481 533.243 374.422 533.652" stroke="white" stroke-linecap="round" stroke-linejoin="round"/>
<path d="M365.251 541.636V537.508C365.251 532.639 361.28 528.687 356.391 528.687H356V532.445C356 532.854 356.02 533.243 356.078 533.652" stroke="white" stroke-linecap="round" stroke-linejoin="round"/>
<path d="M365.234 536.787V519.787" stroke="white" stroke-linecap="round" stroke-linejoin="round"/>
<path d="M356.02 528.686V524.967" stroke="white" stroke-linecap="round" stroke-linejoin="round"/>
<path d="M374.504 528.686V524.967" stroke="white" stroke-linecap="round" stroke-linejoin="round"/>
<path d="M365.25 576.668V564.556" stroke="white" stroke-linecap="round" stroke-linejoin="round"/>
<path d="M339.375 559.18V555.052C339.375 550.183 343.345 546.23 348.234 546.23H348.626V549.989C348.626 550.398 348.606 550.787 348.547 551.196" stroke="white" stroke-linecap="round" stroke-linejoin="round"/>
<path d="M346.24 552.189H348.626V558.323C348.626 562.082 345.555 565.139 341.781 565.139H339.395V559.005C339.395 555.247 342.465 552.189 346.24 552.189Z" stroke="white" stroke-linecap="round" stroke-linejoin="round"/>
<path d="M339.375 565.14H336.989C333.214 565.14 330.144 562.082 330.144 558.324V552.19H332.53C336.305 552.19 339.375 555.247 339.375 559.006V565.14Z" stroke="white" stroke-linecap="round" stroke-linejoin="round"/>
<path d="M339.376 559.181V555.053C339.376 550.184 335.405 546.231 330.516 546.231H330.125V549.99C330.125 550.399 330.145 550.788 330.203 551.197" stroke="white" stroke-linecap="round" stroke-linejoin="round"/>
<path d="M339.375 553.339V549.211C339.375 544.343 343.345 540.39 348.234 540.39H348.626V544.148C348.626 544.557 348.606 544.946 348.547 545.355" stroke="white" stroke-linecap="round" stroke-linejoin="round"/>
<path d="M339.376 553.339V549.211C339.376 544.343 335.405 540.39 330.516 540.39H330.125V544.148C330.125 544.557 330.145 544.946 330.203 545.355" stroke="white" stroke-linecap="round" stroke-linejoin="round"/>
<path d="M339.375 547.497V543.369C339.375 538.501 343.345 534.548 348.234 534.548H348.626V538.306C348.626 538.715 348.606 539.104 348.547 539.513" stroke="white" stroke-linecap="round" stroke-linejoin="round"/>
<path d="M339.376 547.497V543.369C339.376 538.501 335.405 534.548 330.516 534.548H330.125V538.306C330.125 538.715 330.145 539.104 330.203 539.513" stroke="white" stroke-linecap="round" stroke-linejoin="round"/>
<path d="M339.375 541.636V537.508C339.375 532.639 343.345 528.687 348.234 528.687H348.626V532.445C348.626 532.854 348.606 533.243 348.547 533.652" stroke="white" stroke-linecap="round" stroke-linejoin="round"/>
<path d="M339.376 541.636V537.508C339.376 532.639 335.405 528.687 330.516 528.687H330.125V532.445C330.125 532.854 330.145 533.243 330.203 533.652" stroke="white" stroke-linecap="round" stroke-linejoin="round"/>
<path d="M339.359 536.787V519.787" stroke="white" stroke-linecap="round" stroke-linejoin="round"/>
<path d="M330.145 528.686V524.967" stroke="white" stroke-linecap="round" stroke-linejoin="round"/>
<path d="M348.629 528.686V524.967" stroke="white" stroke-linecap="round" stroke-linejoin="round"/>
<path d="M339.375 575.149V564.556" stroke="white" stroke-linecap="round" stroke-linejoin="round"/>
<path d="M400.372 581.711C400.372 578.012 397.36 575.013 393.644 575.013C391.219 575.013 389.088 576.298 387.895 578.226" stroke="white" stroke-linecap="round" stroke-linejoin="round"/>
<path d="M387.898 578.225C386.724 576.297 384.593 575.012 382.148 575.012C379.703 575.012 377.611 576.277 376.418 578.186V578.225C375.244 576.297 373.112 575.012 370.668 575.012C368.223 575.012 366.131 576.277 364.938 578.186V578.225C363.764 576.297 361.632 575.012 359.188 575.012C356.743 575.012 354.651 576.277 353.458 578.186V578.225C352.284 576.297 350.152 575.012 347.708 575.012C345.263 575.012 343.17 576.277 341.977 578.186V578.225C340.804 576.297 338.672 575.012 336.228 575.012C332.512 575.012 329.5 578.011 329.5 581.71" stroke="white" stroke-linecap="round" stroke-linejoin="round"/>
<path d="M137.465 479.089C137.465 483.529 141.083 487.131 145.542 487.131H270.141C273.133 487.131 275.538 489.546 275.538 492.505V502.943C275.538 505.689 277.768 507.908 280.525 507.908C281.816 507.908 282.99 507.422 283.87 506.623L310.037 486.041C311.837 484.619 314.379 484.6 316.198 486.002L323.004 491.22C324.686 492.505 327.013 492.603 328.793 491.434L357.835 454.728C359.556 453.618 361.766 453.657 363.448 454.826L390.75 486.352H404.674" stroke="white" stroke-linecap="round" stroke-linejoin="round"/>
<path d="M404.658 582.684H223.363" stroke="white" stroke-linecap="round" stroke-linejoin="round"/>
<path d="M300.864 524.013H238.242L255.218 515.25H283.889L300.864 524.013Z" stroke="white" stroke-linecap="round" stroke-linejoin="round"/>
<path d="M245.793 524.013V528.141" stroke="white" stroke-linecap="round" stroke-linejoin="round"/>
<path d="M257.855 524.013V528.141" stroke="white" stroke-linecap="round" stroke-linejoin="round"/>
<path d="M281.992 524.013V528.141" stroke="white" stroke-linecap="round" stroke-linejoin="round"/>
<path d="M294.078 524.013V528.141" stroke="white" stroke-linecap="round" stroke-linejoin="round"/>
<path d="M300.864 542.551H238.242L255.218 533.788H283.889L300.864 542.551Z" stroke="white" stroke-linecap="round" stroke-linejoin="round"/>
<path d="M245.793 542.551V546.679" stroke="white" stroke-linecap="round" stroke-linejoin="round"/>
<path d="M257.855 542.551V546.679" stroke="white" stroke-linecap="round" stroke-linejoin="round"/>
<path d="M281.992 542.551V546.679" stroke="white" stroke-linecap="round" stroke-linejoin="round"/>
<path d="M294.078 542.551V546.679" stroke="white" stroke-linecap="round" stroke-linejoin="round"/>
<path d="M275.829 515.25H263.254V554.819H275.829V515.25Z" stroke="white" stroke-linecap="round" stroke-linejoin="round"/>
<path d="M263.257 554.818L252.07 580.483L277.045 557.583" stroke="white" stroke-linecap="round" stroke-linejoin="round"/>
<path d="M275.831 554.818L287.037 580.483L262.102 557.486" stroke="white" stroke-linecap="round" stroke-linejoin="round"/>
<path d="M402.02 450.132C403.791 450.132 405.227 448.702 405.227 446.939C405.227 445.175 403.791 443.745 402.02 443.745C400.248 443.745 398.812 445.175 398.812 446.939C398.812 448.702 400.248 450.132 402.02 450.132Z" stroke="white" stroke-linecap="round" stroke-linejoin="round"/>
<path d="M397.421 444.621C397.421 444.621 396.13 441.817 390.673 440.182C385.217 438.546 382.166 440.026 380.504 442.129C378.841 444.232 378.02 447.873 385.1 453.053L377.727 460.2L386.586 467.21L384.689 460.258L392.805 453.151L387.29 446.763" stroke="white" stroke-linecap="round" stroke-linejoin="round"/>
<path d="M395.719 447.602L395.856 456.676L405.243 456.403" stroke="white" stroke-linecap="round" stroke-linejoin="round"/>
<path d="M363.941 449.432L393.864 473.85C395.233 474.921 396.856 475.623 398.577 475.837L401.53 476.207" stroke="white" stroke-linecap="round" stroke-linejoin="round"/>
<path d="M403.193 456.461L372.352 432.471" stroke="white" stroke-linecap="round" stroke-linejoin="round"/>
<path d="M201.029 542.181H199.347C198.029 542.181 196.961 543.244 196.961 544.556V577.582C196.961 578.894 198.029 579.958 199.347 579.958H201.029C202.347 579.958 203.415 578.894 203.415 577.582V544.556C203.415 543.244 202.347 542.181 201.029 542.181Z" stroke="white" stroke-linecap="round" stroke-linejoin="round"/>
<path d="M179.653 569.93V576.745C179.653 578.517 178.206 579.958 176.426 579.958C174.646 579.958 173.199 578.517 173.199 576.745V571.682" stroke="white" stroke-linecap="round" stroke-linejoin="round"/>
<path d="M173.215 552.112V545.394C173.215 543.622 174.662 542.181 176.442 542.181C178.221 542.181 179.669 543.622 179.669 545.394V553.942" stroke="white" stroke-linecap="round" stroke-linejoin="round"/>
<path d="M154.15 542.181H152.468C151.15 542.181 150.082 543.244 150.082 544.556V577.582C150.082 578.894 151.15 579.958 152.468 579.958H154.15C155.468 579.958 156.536 578.894 156.536 577.582V544.556C156.536 543.244 155.468 542.181 154.15 542.181Z" stroke="white" stroke-linecap="round" stroke-linejoin="round"/>
<path d="M173.687 567.807C170.578 567.807 168.055 565.295 168.055 562.199C168.055 559.103 170.578 556.591 173.687 556.591C176.797 556.591 184.815 562.199 184.815 562.199C184.815 562.199 176.797 567.807 173.687 567.807Z" stroke="white" stroke-linecap="round" stroke-linejoin="round"/>
<path d="M173.687 564.478C172.415 564.478 171.398 563.445 171.398 562.199" stroke="white" stroke-linecap="round" stroke-linejoin="round"/>
<path d="M156.52 545.394H173.221" stroke="white" stroke-linecap="round" stroke-linejoin="round"/>
<path d="M156.52 578.03H173.221" stroke="white" stroke-linecap="round" stroke-linejoin="round"/>
<path d="M179.652 545.394H196.354" stroke="white" stroke-linecap="round" stroke-linejoin="round"/>
<path d="M179.652 578.03H196.354" stroke="white" stroke-linecap="round" stroke-linejoin="round"/>
<path d="M208.44 566.055H203.414V575.538H208.44V566.055Z" stroke="white" stroke-linecap="round" stroke-linejoin="round"/>
<path d="M183.836 597.503H210.962C212.507 597.503 213.739 596.256 213.739 594.738C213.739 593.219 212.487 591.972 210.962 591.972H206.874C205.975 591.972 205.231 591.232 205.231 590.337C205.231 589.441 205.975 588.701 206.874 588.701H215.675C217.22 588.701 218.452 587.455 218.452 585.936C218.452 584.417 217.2 583.171 215.675 583.171H213.876C212.507 583.171 211.392 582.061 211.392 580.698V575.323" stroke="white" stroke-linecap="round" stroke-linejoin="round"/>
<path d="M208.067 579.49V580.503C208.067 581.963 206.874 583.151 205.407 583.151H193.086C191.541 583.151 190.309 584.397 190.309 585.916C190.309 587.435 191.561 588.681 193.086 588.681H195.492C196.391 588.681 197.134 589.421 197.134 590.317C197.134 591.213 196.391 591.953 195.492 591.953H183.992C182.447 591.953 181.215 593.199 181.215 594.718C181.215 596.237 182.466 597.483 183.992 597.483" stroke="white" stroke-linecap="round" stroke-linejoin="round"/>
<path d="M184.812 582.684H40.4805" stroke="white" stroke-linecap="round" stroke-linejoin="round"/>
<path d="M0.999998 622C0.999999 649.071 23.4225 671 51.0479 671L189 671" stroke="white" stroke-linecap="round" stroke-linejoin="round"/>
<path d="M188.999 671C209.945 671 226.945 687.933 226.945 708.838" stroke="white" stroke-linecap="round" stroke-linejoin="round"/>
</g>
<defs>
<clipPath id="clip0_13705_77419">
<rect width="454" height="700" fill="white"/>
</clipPath>
</defs>
</svg>
